<svg width="32" height="32" viewBox="0 0 32 32" fill="none" xmlns="http://www.w3.org/2000/svg">
<path d="M11.7333 0C7.60995 0 4.26667 3.34011 4.26667 7.46249C4.26667 11.5849 7.60995 14.925 11.7333 14.925C15.8567 14.925 19.2 11.5849 19.2 7.46249C19.2 3.34011 15.8567 0 11.7333 0Z" fill="#2AC1CE"/>
<path d="M25.6 10.6667V14.9333H21.3333V17.0667H25.6V21.3333H27.7333V17.0667H32V14.9333H27.7333V10.6667H25.6Z" fill="#2AC1CE"/>
<path d="M16 19.1875L7.46666 19.1875C3.34317 19.1875 0 22.5291 0 26.6531V31.9805L23.4667 31.9805V26.6531C23.4667 22.5291 20.1235 19.1875 16 19.1875Z" fill="#2AC1CE"/>
</svg>
