<svg width="19" height="20" viewBox="0 0 19 20" fill="none" xmlns="http://www.w3.org/2000/svg">
<path d="M7.11913 1.66675H2.35722C1.69974 1.66675 1.16675 2.19974 1.16675 2.85722V7.61913C1.16675 8.27661 1.69974 8.80961 2.35722 8.80961H7.11913C7.77661 8.80961 8.30961 8.27661 8.30961 7.61913V2.85722C8.30961 2.19974 7.77661 1.66675 7.11913 1.66675Z" stroke="white" stroke-width="1.5"/>
<path d="M16.6429 1.66675H11.881C11.2236 1.66675 10.6906 2.19974 10.6906 2.85722V7.61913C10.6906 8.27661 11.2236 8.80961 11.881 8.80961H16.6429C17.3004 8.80961 17.8334 8.27661 17.8334 7.61913V2.85722C17.8334 2.19974 17.3004 1.66675 16.6429 1.66675Z" stroke="white" stroke-width="1.5"/>
<path d="M16.6429 11.1906H11.881C11.2236 11.1906 10.6906 11.7236 10.6906 12.381V17.1429C10.6906 17.8004 11.2236 18.3334 11.881 18.3334H16.6429C17.3004 18.3334 17.8334 17.8004 17.8334 17.1429V12.381C17.8334 11.7236 17.3004 11.1906 16.6429 11.1906Z" stroke="white" stroke-width="1.5"/>
<path d="M7.11913 11.1906H2.35722C1.69974 11.1906 1.16675 11.7236 1.16675 12.381V17.1429C1.16675 17.8004 1.69974 18.3334 2.35722 18.3334H7.11913C7.77661 18.3334 8.30961 17.8004 8.30961 17.1429V12.381C8.30961 11.7236 7.77661 11.1906 7.11913 11.1906Z" stroke="white" stroke-width="1.5"/>
</svg>
