<svg width="25" height="23" viewBox="0 0 25 23" fill="none" xmlns="http://www.w3.org/2000/svg">
<path fill-rule="evenodd" clip-rule="evenodd" d="M24.9709 15.9185C22.2177 20.5143 17.1481 23.21 11.7985 22.9228C5.24677 22.6297 3.93212 19.9746 4.18212 17.884C4.26445 17.1313 4.54893 16.4149 5.00539 15.8108C5.06191 15.7333 5.1254 15.6612 5.19505 15.5952C5.61384 15.1727 6.13749 14.8692 6.71229 14.7159C7.97522 14.3797 9.37177 14.7978 10.6563 15.3151C13.6864 16.5306 16.6476 17.259 20.1994 16.8625C20.458 16.8323 20.7166 16.7978 20.9795 16.7504C22.26 16.5408 23.5066 16.161 24.6864 15.6211C24.7709 15.5791 24.8729 15.5969 24.9381 15.6651C25.0034 15.7333 25.0166 15.836 24.9709 15.9185Z" fill="#C03A2B"/>
<path fill-rule="evenodd" clip-rule="evenodd" d="M11.8742 21.6296H11.8544C8.74576 21.4912 6.59576 20.7554 5.8018 19.5606C5.41572 18.9776 5.34464 18.2408 5.61214 17.5947C5.66266 17.4464 5.78969 17.3371 5.9439 17.3094C6.09812 17.2817 6.25523 17.3399 6.35423 17.4613C6.45324 17.5827 6.47854 17.7483 6.42033 17.8938C6.24864 18.2816 6.28617 18.7301 6.5199 19.0839C7.14878 20.0322 9.10611 20.6464 11.8932 20.7705C12.1312 20.7758 12.32 20.973 12.3147 21.211C12.3095 21.4491 12.1123 21.6378 11.8742 21.6326V21.6296Z" fill="#E64C3C"/>
<path fill-rule="evenodd" clip-rule="evenodd" d="M5.00509 15.8108C4.54863 16.415 4.26415 17.1314 4.18182 17.8841C2.71848 17.302 1.39171 16.4229 0.285267 15.3022C-0.119138 14.8419 -0.0773888 14.1418 0.378851 13.7328C0.835091 13.3239 1.53558 13.3586 1.94906 13.8108C2.82266 14.6682 3.85675 15.3449 4.99216 15.8022L5.00509 15.8108Z" fill="#24AE5F"/>
<path fill-rule="evenodd" clip-rule="evenodd" d="M20.9794 16.7504C20.7165 16.7978 20.4579 16.8323 20.1992 16.8624C16.6475 17.259 13.6863 16.5305 10.6561 15.315C9.37166 14.7978 7.97511 14.3797 6.71218 14.7159C6.33675 12.9943 6.23804 10.7228 7.52856 8.86546C7.63874 8.71489 7.83329 8.6523 8.0106 8.71039C8.1879 8.76848 8.30771 8.93405 8.30744 9.12063C8.29278 10.2504 8.57856 11.7159 10.1691 11.7159C12.7553 11.7159 11.0311 6.97451 10.6001 5.6814C10.0352 3.71898 10.6818 1.60809 12.2488 0.298646C12.3893 0.182659 12.5874 0.167467 12.7439 0.260695C12.9004 0.353922 12.9814 0.535444 12.9462 0.714164C12.5837 2.55037 12.129 6.11244 14.0484 6.11244C14.9389 6.11244 15.2665 5.49994 15.3139 4.69563C15.3291 4.52297 15.4462 4.37619 15.6111 4.32305C15.7761 4.26991 15.9569 4.32075 16.0699 4.45209C16.8127 5.24485 17.1621 6.32819 17.0225 7.40554C16.5915 10.4228 15.7294 12.1469 17.0225 12.578C18.0018 12.9042 18.7898 11.6142 18.8501 10.2038C18.8558 10.029 18.9666 9.875 19.1304 9.81394C19.2943 9.75289 19.4789 9.79691 19.5975 9.92537C21.3011 11.7615 21.8345 14.3962 20.9794 16.7504Z" fill="#F29C1F"/>
</svg>
