<svg width="14" height="10" viewBox="0 0 14 10" fill="none" xmlns="http://www.w3.org/2000/svg">
<path d="M5.00659 6.33335H0.999919C0.633252 6.33335 0.333252 6.63335 0.333252 7.00002C0.333252 7.36669 0.633252 7.66669 0.999919 7.66669H5.00659V8.86002C5.00659 9.16002 5.36659 9.30669 5.57325 9.09335L7.42659 7.23335C7.55325 7.10002 7.55325 6.89335 7.42659 6.76002L5.57325 4.90002C5.36659 4.68669 5.00659 4.84002 5.00659 5.13335V6.33335ZM8.99325 4.86002V3.66669H12.9999C13.3666 3.66669 13.6666 3.36669 13.6666 3.00002C13.6666 2.63335 13.3666 2.33335 12.9999 2.33335H8.99325V1.14002C8.99325 0.84002 8.63325 0.693354 8.42659 0.906687L6.57325 2.76669C6.44659 2.90002 6.44659 3.10669 6.57325 3.24002L8.42659 5.10002C8.47358 5.14609 8.53316 5.17722 8.59782 5.18948C8.66248 5.20174 8.72932 5.19458 8.78992 5.16892C8.85052 5.14325 8.90217 5.10022 8.93835 5.04525C8.97454 4.99028 8.99364 4.92583 8.99325 4.86002Z" fill="#2AC1CE"/>
</svg>
