<svg width="33" height="26" viewBox="0 0 33 26" fill="none" xmlns="http://www.w3.org/2000/svg">
<path d="M2.10327 18.4438C1.43794 14.1191 0.772611 9.79453 0.107283 5.46984C-0.0402636 4.51117 1.05053 3.85732 1.82644 4.43931C3.89931 5.99396 5.97208 7.54851 8.04496 9.10317C8.72746 9.61504 9.6998 9.44846 10.173 8.73862L15.35 0.972994C15.8971 0.152353 17.1028 0.152353 17.6499 0.972994L22.827 8.73862C23.3001 9.44846 24.2725 9.61493 24.955 9.10317C27.0279 7.54851 29.1006 5.99396 31.1735 4.43931C31.9494 3.85732 33.0402 4.51117 32.8928 5.46984C32.2274 9.79453 31.5621 14.1191 30.8968 18.4438H2.10327Z" fill="#FFB743"/>
<path d="M29.3958 25.6422H3.60469C2.77562 25.6422 2.10352 24.9701 2.10352 24.1411V20.8434H30.897V24.1411C30.8969 24.9701 30.2248 25.6422 29.3958 25.6422Z" fill="#FFB743"/>
</svg>
