<svg width="60" height="59" viewBox="0 0 60 59" fill="none" xmlns="http://www.w3.org/2000/svg">
<path fill-rule="evenodd" clip-rule="evenodd" d="M22.2728 0.18149C20.2611 0.747779 18.6314 2.0436 17.6986 3.81876C16.5453 6.01364 16.5304 8.38639 17.6564 10.5467C17.9008 11.0159 18.1212 11.444 18.146 11.4978C18.1707 11.5517 14.849 11.6132 10.7641 11.6346C3.34369 11.6732 3.33672 11.6735 2.65367 11.9876C1.85729 12.3538 1.05543 13.086 0.602343 13.8607C0.067363 14.7757 -0.0383206 15.764 0.0107614 19.3979C0.0549216 22.6713 0.0640819 22.7646 0.410117 23.4994C0.889453 24.5172 1.39531 25.0833 2.26238 25.5728L2.99068 25.9837L3.02719 40.5668L3.06383 55.1498L3.38594 55.765C3.8248 56.6033 4.56869 57.357 5.38805 57.7934L6.07164 58.1576H29.9291H53.7865L54.4701 57.7934C55.2894 57.357 56.0333 56.6033 56.4722 55.765L56.7943 55.1498L56.8309 40.5668L56.8674 25.9837L57.5957 25.5728C58.4628 25.0833 58.9687 24.5172 59.448 23.4994L59.8021 22.7475V18.9877C59.8021 15.6939 59.7711 15.1388 59.5514 14.5085C59.2178 13.5518 58.1783 12.4223 57.2414 11.9989L56.5209 11.6732L49.094 11.6346C45.0091 11.6132 41.6874 11.5517 41.7122 11.4978C41.7369 11.444 41.9573 11.0159 42.2018 10.5467C43.9296 7.23153 42.8713 3.24823 39.6991 1.12758C38.6241 0.408854 37.564 0.0841464 36.066 0.0145566C33.9795 -0.082377 32.279 0.552135 30.7431 2.00067L29.9098 2.78653L29.1138 2.00983C28.2689 1.18542 27.1913 0.56567 25.9735 0.204186C25.0899 -0.0580409 23.1659 -0.0699355 22.2728 0.18149ZM26.0151 3.31878C26.8379 3.72141 27.5642 4.44657 28.0433 5.34385C28.3363 5.89264 28.3597 6.11741 28.401 8.77836L28.4451 11.6257L25.7349 11.5804C23.2365 11.5387 22.969 11.51 22.3119 11.2135C20.5313 10.4101 19.4328 8.31174 19.8169 6.44758C20.0226 5.45022 20.2409 5.02749 20.9443 4.26432C22.2415 2.85708 24.2904 2.47508 26.0151 3.31878ZM37.5539 3.2634C39.0314 3.90147 40.1009 5.56698 40.1009 7.22989C40.1009 8.88391 39.0418 10.5392 37.5539 11.2102C36.8878 11.5106 36.6292 11.5386 34.1332 11.5803L31.433 11.6254L31.4338 9.05167C31.4346 6.21161 31.5091 5.77397 32.1544 4.82296C33.3751 3.02374 35.5466 2.39647 37.5539 3.2634ZM22.6507 18.8852L22.6868 23.226H13.2408H3.79473L3.3951 22.8264L2.99547 22.4267V18.9602C2.99547 15.9789 3.02664 15.4494 3.21805 15.176C3.70723 14.4776 3.61672 14.4835 13.4545 14.5149L22.6146 14.5443L22.6507 18.8852ZM34.3041 18.851V23.226H29.9291H25.5541V18.851V14.476H29.9291H34.3041V18.851ZM55.9604 14.6666C56.8467 15.0368 56.8627 15.1132 56.8627 18.9602V22.4267L56.463 22.8264L56.0634 23.226H46.6193H37.1752V18.9422C37.1752 16.586 37.2162 14.6172 37.2663 14.5672C37.3164 14.517 41.4405 14.476 46.4309 14.476C53.8814 14.476 55.5858 14.51 55.9604 14.6666ZM22.683 40.7975V55.3613L14.6879 55.3239L6.69289 55.2865L6.31391 54.9074L5.93492 54.5284L5.89883 40.381L5.86273 26.2338H14.2729H22.683V40.7975ZM34.3041 40.7943V55.3549H29.9291H25.5541V40.7943V26.2338H29.9291H34.3041V40.7943ZM53.9593 40.381L53.9232 54.5284L53.5442 54.9074L53.1652 55.2865L45.1702 55.3239L37.1752 55.3613V40.7975V26.2338H45.5853H53.9954L53.9593 40.381Z" fill="#157594"/>
</svg>
