<svg width="16" height="13" viewBox="0 0 16 13" fill="none" xmlns="http://www.w3.org/2000/svg">
<g clip-path="url(#clip0_707_74578)">
<path d="M16 0.5H0V12.5H16V0.5Z" fill="#4EAEC4"/>
<path d="M1.1833 8.25744C1.18428 8.21235 1.19379 8.16791 1.21127 8.12669C1.22876 8.08547 1.25387 8.0483 1.28516 8.01732C1.31645 7.98634 1.3533 7.96217 1.39356 7.9462C1.43383 7.93024 1.47672 7.9228 1.51975 7.92431C1.55852 7.91925 1.59788 7.92298 1.63515 7.93526C1.67242 7.94753 1.70673 7.96806 1.73576 7.99545C1.76479 8.02284 1.78786 8.05645 1.8034 8.09401C1.81893 8.13156 1.82658 8.17218 1.82581 8.2131C1.82789 8.29859 1.80882 8.38319 1.77046 8.45868L1.31137 9.45237C1.2949 9.49409 1.28784 9.53922 1.29075 9.58426C1.29075 9.6307 1.30836 9.67523 1.3397 9.70807C1.37105 9.7409 1.41356 9.75935 1.45789 9.75935C1.50221 9.75935 1.54473 9.7409 1.57607 9.70807C1.60742 9.67523 1.62503 9.6307 1.62503 9.58426C1.62503 9.47056 1.57076 9.42622 1.51649 9.42622C1.46223 9.42622 1.4199 9.45465 1.4199 9.50581C1.4199 9.55697 1.43618 9.55584 1.46006 9.55584C1.51866 9.55584 1.5013 9.47284 1.5013 9.47284C1.5092 9.4744 1.51667 9.47779 1.52317 9.48275C1.52966 9.48771 1.53503 9.49412 1.53887 9.50152C1.54271 9.50892 1.54494 9.51712 1.54539 9.52553C1.54583 9.53394 1.54449 9.54235 1.54146 9.55015C1.56368 9.55529 1.58381 9.56762 1.59898 9.5854C1.58323 9.60195 1.56326 9.61339 1.54146 9.61837C1.55557 9.66612 1.54146 9.68886 1.49696 9.69909C1.5039 9.68307 1.5058 9.66515 1.50238 9.64793C1.48387 9.65439 1.46413 9.65605 1.44486 9.65275C1.4256 9.64945 1.40739 9.6413 1.3918 9.629C1.37621 9.61669 1.36371 9.6006 1.35537 9.58212C1.34703 9.56363 1.3431 9.54329 1.34393 9.52286C1.34192 9.49423 1.34657 9.46551 1.35749 9.43918C1.3684 9.41284 1.38526 9.38968 1.40661 9.37168C1.42796 9.35367 1.45316 9.34137 1.48005 9.33582C1.50694 9.33027 1.53472 9.33164 1.56099 9.33981C1.54519 9.33148 1.53182 9.31885 1.52228 9.30325C1.51273 9.28765 1.50736 9.26965 1.50673 9.25113C1.52419 9.25766 1.54247 9.26149 1.56099 9.2625C1.53305 9.22888 1.51831 9.1854 1.51975 9.14085C1.54471 9.15335 1.56967 9.17723 1.60223 9.16245C1.59057 9.13138 1.58605 9.09787 1.58905 9.06462C1.59204 9.03138 1.60247 8.99935 1.61949 8.97112C1.63651 8.94288 1.65963 8.91925 1.68699 8.90212C1.71435 8.88499 1.74518 8.87485 1.77697 8.87253C1.72286 8.93501 1.69171 9.0156 1.68906 9.09992C1.68906 9.35459 1.75635 9.3978 1.75635 9.57516C1.7551 9.61633 1.74462 9.65661 1.72577 9.69275C1.70692 9.7289 1.68021 9.75989 1.64782 9.78323C1.66776 9.78755 1.68659 9.79627 1.70306 9.80882C1.71953 9.82137 1.73326 9.83745 1.74333 9.85599C1.62799 9.88998 1.50593 9.88998 1.3906 9.85599C1.35229 9.85014 1.31568 9.83548 1.28341 9.81307C1.25114 9.79066 1.224 9.76106 1.20392 9.72638C1.18311 9.67694 1.17236 9.62351 1.17236 9.56948C1.17236 9.51545 1.18311 9.46201 1.20392 9.41258C1.26904 9.27046 1.5751 8.59284 1.66952 8.37909C1.69074 8.33419 1.70188 8.2848 1.70208 8.2347C1.70242 8.20988 1.69787 8.18526 1.68873 8.16236C1.67959 8.13947 1.66604 8.11879 1.64893 8.10162C1.63183 8.08444 1.61153 8.07114 1.58931 8.06255C1.56708 8.05395 1.5434 8.05024 1.51975 8.05165C1.4817 8.0499 1.4444 8.06318 1.41526 8.08887C1.38611 8.11456 1.36724 8.15078 1.36238 8.19036C1.36238 8.23925 1.38734 8.26881 1.42424 8.26881C1.51215 8.26881 1.50673 8.19036 1.48936 8.14147C1.5136 8.14876 1.53465 8.16466 1.54891 8.18645C1.56317 8.20823 1.56974 8.23454 1.5675 8.26085C1.60154 8.26667 1.6324 8.28526 1.65433 8.31315C1.64481 8.32832 1.63196 8.34088 1.61685 8.34978C1.60175 8.35868 1.58482 8.36366 1.5675 8.36431C1.58487 8.43935 1.53603 8.47005 1.48936 8.4871C1.50456 8.43366 1.51432 8.37341 1.42424 8.37341C1.39724 8.37735 1.36972 8.37423 1.34415 8.36431C1.31858 8.35439 1.29576 8.33798 1.27772 8.31656C1.27772 8.37568 1.27013 8.60989 1.27013 8.60989C1.27013 8.69744 1.37866 8.69516 1.4568 8.66901C1.45241 8.6938 1.44314 8.71737 1.4296 8.73821C1.41605 8.75905 1.39851 8.77671 1.3781 8.79008C1.35769 8.80344 1.33485 8.81221 1.31103 8.81584C1.28721 8.81946 1.26293 8.81786 1.23974 8.81113C1.2597 8.81998 1.27667 8.83489 1.28847 8.85394C1.30027 8.87299 1.30636 8.8953 1.30594 8.91801C1.30264 8.95757 1.29124 8.99593 1.27251 9.03046C1.25378 9.06499 1.22817 9.09489 1.19741 9.11811L1.1833 8.25744Z" fill="#F5C832"/>
<path d="M1.22428 8.25744C1.2233 8.21225 1.21376 8.16771 1.19621 8.12642C1.17866 8.08513 1.15345 8.0479 1.12204 8.0169C1.09063 7.98591 1.05366 7.96176 1.01327 7.94586C0.972873 7.92997 0.929867 7.92264 0.886747 7.92431C0.847977 7.91925 0.808622 7.92298 0.771351 7.93526C0.734079 7.94753 0.699765 7.96806 0.670735 7.99545C0.641705 8.02284 0.618638 8.05645 0.603102 8.09401C0.587565 8.13156 0.57992 8.17218 0.580687 8.2131C0.578817 8.29884 0.598664 8.38358 0.638209 8.45868L1.09621 9.45237C1.11309 9.49398 1.12052 9.53913 1.11792 9.58426C1.11453 9.62841 1.09539 9.6696 1.06432 9.69963C1.03325 9.72967 0.992517 9.74634 0.950238 9.74634C0.90796 9.74634 0.867231 9.72967 0.836159 9.69963C0.805087 9.6696 0.78595 9.62841 0.782557 9.58426C0.782557 9.47056 0.836823 9.42622 0.891088 9.42622C0.945354 9.42622 0.987682 9.45465 0.987682 9.50581C0.987682 9.55697 0.971402 9.55584 0.94861 9.55584C0.888918 9.55584 0.906283 9.47284 0.906283 9.47284C0.898383 9.4744 0.890914 9.47779 0.884416 9.48275C0.877918 9.48771 0.872554 9.49412 0.868711 9.50152C0.864868 9.50892 0.862643 9.51712 0.862196 9.52553C0.861749 9.53394 0.863091 9.54235 0.866126 9.55015C0.84429 9.55551 0.824574 9.56782 0.80969 9.5854C0.82487 9.60213 0.844555 9.61363 0.866126 9.61837C0.862148 9.62662 0.860195 9.63579 0.860444 9.64504C0.860692 9.65428 0.863134 9.66332 0.86755 9.67133C0.871965 9.67934 0.878215 9.68607 0.885735 9.69092C0.893255 9.69576 0.901809 9.69857 0.910624 9.69909C0.90421 9.68292 0.902327 9.66518 0.905198 9.64793C0.923715 9.65439 0.943456 9.65605 0.96272 9.65275C0.981984 9.64945 1.00019 9.6413 1.01578 9.629C1.03137 9.61669 1.04388 9.6006 1.05222 9.58212C1.06055 9.56363 1.06448 9.54329 1.06365 9.52286C1.06567 9.49423 1.06101 9.46551 1.0501 9.43918C1.03918 9.41284 1.02232 9.38968 1.00097 9.37168C0.979621 9.35367 0.954418 9.34137 0.927528 9.33582C0.900638 9.33027 0.872863 9.33164 0.84659 9.33981C0.862388 9.33148 0.875757 9.31885 0.885303 9.30325C0.894849 9.28765 0.900221 9.26965 0.900856 9.25113C0.88339 9.25766 0.86511 9.26149 0.84659 9.2625C0.871157 9.23011 0.884884 9.19017 0.885662 9.14881C0.859614 9.16131 0.835737 9.18519 0.802092 9.17041C0.81376 9.13934 0.818278 9.10582 0.81528 9.07258C0.812282 9.03934 0.801853 9.00731 0.784837 8.97907C0.767821 8.95084 0.744697 8.9272 0.717337 8.91008C0.689977 8.89295 0.659152 8.88281 0.627356 8.88049C0.681875 8.9427 0.713096 9.02345 0.715267 9.10788C0.715267 9.36255 0.647977 9.40576 0.647977 9.58312C0.649227 9.62429 0.659702 9.66457 0.678555 9.70071C0.697408 9.73686 0.724112 9.76785 0.756509 9.79118C0.736567 9.79551 0.717734 9.80423 0.701265 9.81678C0.684796 9.82932 0.671069 9.84541 0.661001 9.86395C0.776338 9.89794 0.898392 9.89794 1.01373 9.86395C1.05209 9.85825 1.08875 9.84365 1.12104 9.82123C1.15334 9.79881 1.18045 9.76912 1.2004 9.73434C1.22122 9.6849 1.23196 9.63147 1.23196 9.57744C1.23196 9.52341 1.22122 9.46997 1.2004 9.42054C1.13528 9.27842 0.829225 8.6008 0.733717 8.38705C0.712763 8.33817 0.703096 8.28481 0.705499 8.23129C0.706058 8.20735 0.711151 8.18376 0.720483 8.1619C0.729815 8.14004 0.743201 8.12034 0.759862 8.10395C0.776523 8.08755 0.796127 8.07479 0.817536 8.06639C0.838946 8.058 0.861734 8.05415 0.884576 8.05506C0.922082 8.05347 0.958838 8.06637 0.987854 8.09132C1.01687 8.11626 1.03612 8.15151 1.04195 8.19036C1.04195 8.23925 1.0159 8.26881 0.978999 8.26881C0.891088 8.26881 0.896515 8.19036 0.91388 8.14147C0.889645 8.14876 0.86859 8.16466 0.85433 8.18645C0.840071 8.20823 0.833497 8.23454 0.835737 8.26085C0.801698 8.26667 0.77084 8.28526 0.748912 8.31315C0.758433 8.32832 0.771284 8.34088 0.78639 8.34978C0.801496 8.35868 0.818417 8.36366 0.835737 8.36431C0.818372 8.43935 0.866126 8.47005 0.91388 8.4871C0.898686 8.43366 0.888918 8.37341 0.978999 8.37341C1.006 8.37735 1.03352 8.37423 1.05909 8.36431C1.08466 8.35439 1.10748 8.33798 1.12552 8.31656C1.12552 8.37568 1.13311 8.60989 1.13311 8.60989C1.13311 8.69744 1.02458 8.69516 0.94644 8.66901C0.950832 8.6938 0.960097 8.71737 0.973645 8.73821C0.987193 8.75905 1.00473 8.77671 1.02514 8.79008C1.04555 8.80344 1.06839 8.81221 1.09221 8.81584C1.11603 8.81946 1.14031 8.81786 1.1635 8.81113C1.14354 8.81998 1.12657 8.83489 1.11477 8.85394C1.10297 8.87299 1.09688 8.8953 1.0973 8.91801C1.1006 8.95757 1.112 8.99593 1.13073 9.03046C1.14946 9.06499 1.17507 9.09489 1.20583 9.11811L1.22428 8.25744Z" fill="#F5C832"/>
<path d="M1.20352 10.6371C1.20352 10.6371 1.30336 10.7235 1.33701 10.6803C1.39128 10.6087 1.16987 10.2574 1.16987 10.1323C1.16987 9.92993 1.29902 9.87421 1.46074 9.84465C1.55479 9.83529 1.64959 9.83835 1.74292 9.85375C1.73172 9.87338 1.71581 9.88959 1.69676 9.90076C1.67772 9.91193 1.65621 9.91767 1.63439 9.91742C1.67281 9.93797 1.70491 9.96946 1.72699 10.0083C1.74907 10.0471 1.76024 10.0917 1.7592 10.1369C1.7592 10.3119 1.68974 10.3847 1.68974 10.5814C1.69981 10.6707 1.72954 10.7563 1.77656 10.8315C1.74506 10.83 1.71432 10.8209 1.68675 10.8049C1.65918 10.7889 1.63552 10.7664 1.61765 10.7392C1.59977 10.712 1.58815 10.6808 1.58372 10.6481C1.57928 10.6154 1.58213 10.5821 1.59206 10.5507C1.58044 10.5483 1.56843 10.5489 1.55708 10.5525C1.54573 10.556 1.53538 10.5625 1.52694 10.5712C1.52359 10.5528 1.5246 10.5339 1.5299 10.516C1.53521 10.4982 1.54463 10.482 1.55733 10.4688C1.53779 10.4575 1.52368 10.4688 1.49438 10.4688C1.49743 10.4473 1.50518 10.4267 1.51704 10.4087C1.5289 10.3908 1.54454 10.376 1.56276 10.3654C1.53772 10.3741 1.51104 10.3764 1.48497 10.3721C1.4589 10.3678 1.4342 10.357 1.41293 10.3407C1.39167 10.3243 1.37446 10.3028 1.36276 10.278C1.35106 10.2532 1.34521 10.2259 1.34569 10.1982C1.34357 10.1655 1.35372 10.1332 1.37398 10.1081C1.39424 10.0831 1.42303 10.0673 1.45422 10.0641C1.47391 10.0648 1.49304 10.0711 1.50958 10.0823C1.51352 10.0704 1.51507 10.0578 1.51413 10.0453C1.5132 10.0328 1.5098 10.0206 1.50415 10.0095C1.54105 10.0197 1.56601 10.0436 1.54865 10.0925C1.56136 10.0926 1.57392 10.0955 1.58551 10.101C1.59709 10.1065 1.60746 10.1144 1.61594 10.1243C1.60815 10.1352 1.59794 10.1439 1.58621 10.1496C1.57448 10.1554 1.56158 10.158 1.54865 10.1573C1.56927 10.2028 1.54865 10.2289 1.51175 10.2494C1.51175 10.2494 1.53345 10.1573 1.4781 10.1573C1.45314 10.1573 1.43035 10.1664 1.43035 10.2039C1.4311 10.2156 1.43419 10.2271 1.43941 10.2375C1.44463 10.2478 1.45187 10.257 1.46066 10.2643C1.46946 10.2715 1.4796 10.2768 1.49046 10.2797C1.50131 10.2827 1.51263 10.2832 1.52368 10.2812C1.58772 10.2812 1.6409 10.2346 1.6409 10.1266C1.6409 10.0186 1.56384 9.97654 1.46182 9.97313C1.4416 9.96997 1.42096 9.97148 1.40136 9.97757C1.38176 9.98366 1.36367 9.99417 1.34836 10.0084C1.33305 10.0226 1.32089 10.0401 1.31274 10.0597C1.3046 10.0794 1.30065 10.1007 1.30119 10.1221C1.30119 10.2528 1.48244 10.553 1.48244 10.6701C1.48163 10.6896 1.47707 10.7087 1.46902 10.7263C1.46097 10.7438 1.4496 10.7595 1.43561 10.7724C1.42161 10.7852 1.40528 10.795 1.38758 10.8011C1.36989 10.8071 1.35121 10.8094 1.33267 10.8077C1.26385 10.7986 1.20074 10.7629 1.15576 10.7076L1.20352 10.6371Z" fill="#F5C832"/>
<path d="M1.20358 10.6371C1.20358 10.6371 1.10373 10.7235 1.07009 10.6803C1.01582 10.6087 1.23723 10.2574 1.23723 10.1323C1.23723 9.92994 1.10807 9.87423 0.947446 9.84467C0.853032 9.83528 0.757866 9.83834 0.664178 9.85377C0.675375 9.87339 0.691289 9.8896 0.710333 9.90077C0.729377 9.91195 0.750884 9.91769 0.77271 9.91744C0.734896 9.93845 0.703462 9.97016 0.681977 10.0089C0.660491 10.0477 0.649813 10.092 0.651154 10.1369C0.651154 10.312 0.720614 10.3847 0.720614 10.5814C0.710539 10.6707 0.680817 10.7563 0.633789 10.8315C0.665288 10.8301 0.696031 10.821 0.723604 10.8049C0.751177 10.7889 0.774831 10.7664 0.792707 10.7392C0.810584 10.712 0.822198 10.6808 0.826637 10.6481C0.831076 10.6154 0.82822 10.5821 0.818293 10.5507C0.829918 10.5483 0.841927 10.5489 0.853276 10.5525C0.864626 10.5561 0.874971 10.5625 0.883412 10.5712C0.886904 10.5529 0.886057 10.534 0.880947 10.5162C0.875838 10.4983 0.866621 10.4821 0.854109 10.4689C0.872559 10.4575 0.886668 10.4689 0.917057 10.4689C0.913582 10.4473 0.90554 10.4268 0.893521 10.4089C0.881502 10.391 0.86581 10.3761 0.847597 10.3654C0.872636 10.3741 0.89931 10.3764 0.92538 10.3721C0.95145 10.3678 0.976155 10.3571 0.99742 10.3407C1.01869 10.3243 1.03589 10.3028 1.04759 10.278C1.05929 10.2533 1.06514 10.2259 1.06466 10.1983C1.06707 10.1654 1.05702 10.1329 1.0367 10.1078C1.01639 10.0827 0.987434 10.067 0.956129 10.0641C0.936444 10.0648 0.91731 10.0711 0.900777 10.0823C0.896836 10.0704 0.895284 10.0578 0.896218 10.0453C0.897152 10.0328 0.900552 10.0206 0.906204 10.0095C0.869303 10.0198 0.844341 10.0436 0.861706 10.0925C0.849013 10.0928 0.836498 10.0957 0.824928 10.1012C0.813358 10.1067 0.802976 10.1145 0.794416 10.1244C0.802002 10.1375 0.812915 10.1482 0.825944 10.1552C0.838973 10.1622 0.853607 10.1653 0.868218 10.1642C0.847597 10.2096 0.868218 10.2358 0.905119 10.2562C0.905119 10.2562 0.883412 10.1642 0.938763 10.1642C0.964811 10.1642 0.986517 10.1732 0.986517 10.2108C0.985761 10.2225 0.982673 10.2339 0.977452 10.2443C0.97223 10.2547 0.964991 10.2638 0.9562 10.2711C0.947409 10.2784 0.93726 10.2836 0.926407 10.2866C0.915553 10.2895 0.904235 10.29 0.89318 10.2881C0.829146 10.2881 0.775966 10.2415 0.775966 10.1335C0.775966 10.0254 0.853023 9.98338 0.955043 9.97997C0.975265 9.97681 0.995902 9.97832 1.0155 9.98441C1.03511 9.9905 1.0532 10.001 1.06851 10.0152C1.08382 10.0294 1.09597 10.0469 1.10412 10.0666C1.11227 10.0862 1.11621 10.1075 1.11567 10.1289C1.11567 10.2597 0.934422 10.5598 0.934422 10.6769C0.935924 10.6961 0.941026 10.7147 0.949435 10.7318C0.957844 10.7488 0.969392 10.764 0.983415 10.7763C0.997439 10.7887 1.01366 10.798 1.03114 10.8038C1.04863 10.8096 1.06702 10.8117 1.08528 10.8099C1.1541 10.8009 1.21721 10.7652 1.26219 10.7099L1.20358 10.6371Z" fill="#F5C832"/>
<path d="M1.18298 4.40433C1.18396 4.35924 1.19346 4.3148 1.21095 4.27359C1.22843 4.23237 1.25355 4.19519 1.28484 4.16421C1.31613 4.13323 1.35297 4.10906 1.39324 4.0931C1.4335 4.07713 1.47639 4.06969 1.51942 4.07121C1.55874 4.06588 1.5987 4.0696 1.6365 4.08213C1.6743 4.09465 1.70904 4.11566 1.73829 4.1437C1.76754 4.17174 1.79059 4.20613 1.80584 4.24447C1.82109 4.28281 1.82816 4.32418 1.82657 4.36568C1.82748 4.44936 1.80806 4.53192 1.77013 4.60557L1.31104 5.60041C1.2949 5.64142 1.28785 5.68574 1.29042 5.73002C1.29042 5.77645 1.30803 5.82099 1.33938 5.85382C1.37072 5.88666 1.41323 5.90511 1.45756 5.90511C1.50189 5.90511 1.5444 5.88666 1.57575 5.85382C1.60709 5.82099 1.6247 5.77645 1.6247 5.73002C1.6247 5.61632 1.57043 5.57198 1.51617 5.57198C1.4619 5.57198 1.41957 5.60154 1.41957 5.6527C1.41957 5.70387 1.43585 5.70273 1.45973 5.70273C1.51834 5.70273 1.50097 5.61973 1.50097 5.61973C1.50887 5.6213 1.51634 5.62469 1.52284 5.62965C1.52934 5.63461 1.5347 5.64102 1.53854 5.64842C1.54239 5.65582 1.54461 5.66402 1.54506 5.67243C1.54551 5.68084 1.54416 5.68925 1.54113 5.69705C1.56336 5.70218 1.58348 5.71451 1.59865 5.73229C1.5829 5.74884 1.56293 5.76029 1.54113 5.76526C1.54511 5.77352 1.54706 5.78269 1.54681 5.79193C1.54656 5.80118 1.54412 5.81021 1.53971 5.81822C1.53529 5.82623 1.52904 5.83296 1.52152 5.83781C1.514 5.84266 1.50545 5.84547 1.49663 5.84599C1.50373 5.82961 1.50563 5.81128 1.50206 5.79369C1.48363 5.8004 1.4639 5.80228 1.44462 5.79915C1.42533 5.79603 1.40707 5.788 1.39144 5.77577C1.3758 5.76354 1.36326 5.74748 1.35492 5.729C1.34659 5.71052 1.3427 5.69018 1.3436 5.66976C1.34166 5.64111 1.34635 5.61239 1.35727 5.58604C1.36819 5.55969 1.38501 5.53649 1.40632 5.51841C1.42763 5.50033 1.45278 5.48791 1.47965 5.48219C1.50652 5.47647 1.53431 5.47763 1.56067 5.48557C1.5448 5.47733 1.53136 5.46473 1.5218 5.44911C1.51224 5.43349 1.50692 5.41544 1.5064 5.39689C1.52372 5.4041 1.54205 5.40833 1.56067 5.4094C1.53557 5.3774 1.52211 5.33711 1.52268 5.2957C1.54764 5.30707 1.5726 5.32981 1.60516 5.31617C1.59325 5.28511 1.58854 5.25153 1.59143 5.21819C1.59432 5.18486 1.60472 5.15271 1.62178 5.12441C1.63884 5.0961 1.66207 5.07245 1.68956 5.05538C1.71704 5.03832 1.74801 5.02833 1.7799 5.02624C1.72579 5.08873 1.69464 5.16932 1.69199 5.25364C1.69199 5.50831 1.75928 5.55152 1.75928 5.72774C1.7582 5.7691 1.7478 5.80961 1.72894 5.84597C1.71008 5.88232 1.68329 5.91349 1.65075 5.93694C1.67055 5.94086 1.68932 5.94919 1.70579 5.96135C1.72227 5.9735 1.73606 5.98922 1.74626 6.00743C1.63103 6.04227 1.50875 6.04227 1.39353 6.00743C1.35522 6.00158 1.31861 5.98692 1.28634 5.96451C1.25407 5.94211 1.22693 5.9125 1.20685 5.87782C1.18604 5.82839 1.17529 5.77495 1.17529 5.72092C1.17529 5.66689 1.18604 5.61346 1.20685 5.56402C1.27197 5.4219 1.57803 4.74428 1.67245 4.53053C1.69353 4.48558 1.70466 4.43622 1.70501 4.38614C1.70585 4.36073 1.70156 4.33543 1.69242 4.31188C1.68328 4.28833 1.66951 4.26706 1.652 4.24946C1.63448 4.23187 1.61362 4.21834 1.59078 4.20976C1.56793 4.20118 1.54362 4.19775 1.51942 4.19968C1.48137 4.19793 1.44408 4.21122 1.41493 4.2369C1.38579 4.26259 1.36691 4.29881 1.36205 4.33839C1.36205 4.38728 1.38701 4.41684 1.42392 4.41684C1.51183 4.41684 1.5064 4.33839 1.48903 4.2895C1.51327 4.29679 1.53433 4.3127 1.54858 4.33448C1.56284 4.35626 1.56942 4.38257 1.56718 4.40888C1.60122 4.4147 1.63207 4.43329 1.654 4.46118C1.64436 4.47614 1.63146 4.48848 1.61636 4.49718C1.60126 4.50588 1.5844 4.51069 1.56718 4.51121C1.58454 4.58624 1.5357 4.61808 1.48903 4.63627C1.50423 4.58056 1.514 4.51689 1.42392 4.51689C1.397 4.52108 1.36951 4.51818 1.34393 4.50845C1.31835 4.49873 1.29548 4.48248 1.2774 4.46118C1.2774 4.5203 1.2698 4.75451 1.2698 4.75451C1.2698 4.84206 1.37833 4.83865 1.45648 4.81363C1.45193 4.83834 1.44257 4.86181 1.42899 4.88256C1.4154 4.90331 1.39787 4.9209 1.3775 4.93424C1.35713 4.94758 1.33436 4.95637 1.3106 4.96007C1.28684 4.96377 1.2626 4.9623 1.23941 4.95575C1.25937 4.96461 1.27635 4.97952 1.28815 4.99856C1.29995 5.01761 1.30603 5.03992 1.30562 5.06263C1.30218 5.10216 1.29072 5.14046 1.272 5.17497C1.25328 5.20948 1.22774 5.2394 1.19708 5.26273L1.18298 4.40433Z" fill="#F5C832"/>
<path d="M1.22437 4.40443C1.2234 4.35924 1.21385 4.31471 1.1963 4.27341C1.17875 4.23212 1.15354 4.19489 1.12213 4.1639C1.09073 4.1329 1.05375 4.10875 1.01336 4.09286C0.972966 4.07696 0.92996 4.06964 0.88684 4.0713C0.847604 4.06616 0.807768 4.07002 0.7701 4.08262C0.732432 4.09522 0.697834 4.11627 0.668711 4.14429C0.639587 4.17231 0.616636 4.20663 0.601452 4.24488C0.586267 4.28313 0.579213 4.32438 0.58078 4.36578C0.579711 4.44962 0.599538 4.53231 0.638302 4.60567L1.09631 5.6005C1.11286 5.64142 1.12028 5.68575 1.11801 5.73012C1.11462 5.77426 1.09548 5.81545 1.06441 5.84549C1.03334 5.87552 0.99261 5.8922 0.950331 5.8922C0.908053 5.8922 0.867324 5.87552 0.836252 5.84549C0.80518 5.81545 0.786043 5.77426 0.78265 5.73012C0.78265 5.61642 0.836915 5.57208 0.891181 5.57208C0.945447 5.57208 0.987775 5.60164 0.987775 5.6528C0.987775 5.70397 0.971495 5.70283 0.948703 5.70283C0.889011 5.70283 0.906376 5.61983 0.906376 5.61983C0.898476 5.6214 0.891007 5.62479 0.884509 5.62975C0.878011 5.63471 0.872647 5.64112 0.868804 5.64852C0.864961 5.65592 0.862736 5.66412 0.862289 5.67253C0.861842 5.68094 0.863184 5.68934 0.866219 5.69714C0.84415 5.70189 0.82426 5.71431 0.809783 5.73239C0.824963 5.74913 0.844647 5.76063 0.866219 5.76536C0.862684 5.77361 0.861117 5.78263 0.861655 5.79166C0.862192 5.80068 0.864818 5.80943 0.869305 5.81715C0.873792 5.82487 0.880006 5.83134 0.88741 5.83598C0.894814 5.84063 0.903186 5.84331 0.911802 5.84381C0.905238 5.82729 0.903355 5.80913 0.906376 5.79151C0.924808 5.79822 0.94453 5.8001 0.963815 5.79698C0.9831 5.79385 1.00136 5.78583 1.017 5.7736C1.03263 5.76137 1.04517 5.74531 1.05351 5.72683C1.06185 5.70835 1.06574 5.688 1.06483 5.66758C1.06677 5.63893 1.06209 5.61021 1.05117 5.58386C1.04025 5.55752 1.02342 5.53432 1.00212 5.51624C0.980809 5.49816 0.955652 5.48573 0.928781 5.48002C0.901911 5.4743 0.87412 5.47546 0.847769 5.4834C0.863639 5.47516 0.877073 5.46255 0.886632 5.44693C0.89619 5.43131 0.901515 5.41326 0.902035 5.39472C0.88471 5.40193 0.866383 5.40615 0.847769 5.40722C0.872406 5.37488 0.886143 5.3349 0.88684 5.29353C0.860792 5.3049 0.836915 5.32764 0.803271 5.31399C0.815186 5.28293 0.819894 5.24935 0.817006 5.21602C0.814117 5.18268 0.803716 5.15054 0.786657 5.12223C0.769598 5.09393 0.746368 5.07027 0.718879 5.05321C0.69139 5.03614 0.660426 5.02615 0.628534 5.02407C0.683054 5.08628 0.714275 5.16704 0.716445 5.25146C0.718616 5.50273 0.651326 5.54707 0.651326 5.72329C0.652407 5.76466 0.662801 5.80516 0.681662 5.84152C0.700523 5.87787 0.727316 5.90904 0.759858 5.93249C0.740056 5.93642 0.721286 5.94474 0.704812 5.9569C0.688337 5.96906 0.67454 5.98477 0.66435 6.00298C0.779566 6.03789 0.901862 6.03789 1.01708 6.00298C1.05544 5.99728 1.0921 5.98269 1.12439 5.96027C1.15669 5.93785 1.1838 5.90816 1.20375 5.87337C1.22456 5.82394 1.23531 5.7705 1.23531 5.71647C1.23531 5.66244 1.22456 5.60901 1.20375 5.55957C1.13863 5.41745 0.832574 4.73983 0.737066 4.52609C0.716835 4.48087 0.706102 4.43163 0.705592 4.38169C0.706151 4.35775 0.711244 4.33417 0.720576 4.31231C0.729908 4.29045 0.743294 4.27075 0.759955 4.25435C0.776616 4.23796 0.79622 4.22519 0.817629 4.2168C0.839039 4.20841 0.861827 4.20455 0.884669 4.20546C0.921856 4.2038 0.958349 4.21638 0.987317 4.24087C1.01628 4.26535 1.03574 4.30006 1.04204 4.33849C1.04204 4.38738 1.01599 4.41694 0.979092 4.41694C0.891181 4.41694 0.896608 4.33849 0.913973 4.2896C0.889738 4.29689 0.868683 4.31279 0.854423 4.33458C0.840164 4.35636 0.83359 4.38267 0.83583 4.40898C0.801791 4.4148 0.770933 4.43339 0.749005 4.46128C0.758647 4.47624 0.771551 4.48858 0.786649 4.49728C0.801748 4.50598 0.818606 4.51079 0.83583 4.5113C0.818465 4.58634 0.866219 4.61818 0.913973 4.63637C0.898779 4.58066 0.889011 4.51699 0.979092 4.51699C1.00601 4.52118 1.0335 4.51828 1.05908 4.50855C1.08466 4.49882 1.10752 4.48258 1.12561 4.46128C1.12561 4.5204 1.13321 4.75461 1.13321 4.75461C1.13321 4.84216 1.02468 4.83875 0.946533 4.81373C0.951076 4.83844 0.960433 4.86191 0.974021 4.88266C0.987609 4.90341 1.00514 4.921 1.02551 4.93434C1.04587 4.94767 1.06865 4.95647 1.09241 4.96017C1.11617 4.96387 1.1404 4.9624 1.1636 4.95585C1.14364 4.9647 1.12666 4.97961 1.11486 4.99866C1.10306 5.01771 1.09698 5.04002 1.09739 5.06273C1.10083 5.10225 1.11229 5.14056 1.13101 5.17507C1.14973 5.20958 1.17527 5.2395 1.20592 5.26283L1.22437 4.40443Z" fill="#F5C832"/>
<path d="M1.22421 3.74506C1.22324 3.79025 1.21369 3.83478 1.19614 3.87608C1.17859 3.91737 1.15338 3.9546 1.12197 3.98559C1.09056 4.01659 1.05359 4.04074 1.0132 4.05663C0.972804 4.07253 0.929798 4.07985 0.886679 4.07818C0.847909 4.08325 0.808553 4.07951 0.771282 4.06724C0.734011 4.05497 0.699696 4.03444 0.670666 4.00704C0.641636 3.97965 0.61857 3.94604 0.603033 3.90849C0.587496 3.87093 0.579852 3.83032 0.580619 3.7894C0.57955 3.70555 0.599376 3.62287 0.638141 3.5495L1.09615 2.55467C1.11322 2.51312 1.12066 2.46793 1.11785 2.42278C1.11446 2.37864 1.09532 2.33745 1.06425 2.30741C1.03318 2.27738 0.992448 2.2607 0.95017 2.2607C0.907891 2.2607 0.867162 2.27738 0.83609 2.30741C0.805018 2.33745 0.785881 2.37864 0.782488 2.42278C0.782488 2.53648 0.836754 2.58082 0.89102 2.58082C0.945286 2.58082 0.987613 2.55126 0.987613 2.50123C0.987613 2.45121 0.971333 2.45121 0.948542 2.45121C0.888849 2.45121 0.906214 2.53421 0.906214 2.53421C0.898864 2.53215 0.891998 2.52852 0.886045 2.52356C0.880092 2.51859 0.87518 2.5124 0.871615 2.50536C0.868051 2.49831 0.86591 2.49058 0.865327 2.48263C0.864744 2.47468 0.865732 2.4667 0.868228 2.45917C0.846525 2.45412 0.826825 2.44221 0.811792 2.42506C0.826375 2.40753 0.84633 2.39587 0.868228 2.39209C0.855204 2.34433 0.868228 2.32046 0.912726 2.31136C0.906252 2.32751 0.904368 2.34528 0.9073 2.36253C0.925732 2.35581 0.945454 2.35394 0.964739 2.35706C0.984023 2.36018 1.00228 2.36821 1.01792 2.38044C1.03356 2.39267 1.04609 2.40873 1.05443 2.42721C1.06277 2.44569 1.06666 2.46603 1.06576 2.48645C1.06777 2.51509 1.06312 2.5438 1.0522 2.57014C1.04128 2.59647 1.02442 2.61964 1.00307 2.63764C0.981723 2.65565 0.95652 2.66795 0.92963 2.6735C0.90274 2.67905 0.874965 2.67768 0.848692 2.6695C0.864574 2.67803 0.877985 2.69086 0.887529 2.70665C0.897072 2.72245 0.9024 2.74064 0.902958 2.75932C0.885633 2.75211 0.867307 2.74789 0.848692 2.74682C0.873118 2.77929 0.886828 2.81918 0.887764 2.86051C0.861716 2.848 0.837839 2.82526 0.804194 2.83891C0.815831 2.87005 0.82033 2.90362 0.817328 2.93691C0.814327 2.97021 0.80391 3.0023 0.786914 3.03061C0.769918 3.05892 0.746818 3.08266 0.719471 3.09992C0.692124 3.11717 0.661293 3.12747 0.629458 3.12997C0.683646 3.06754 0.714815 2.98691 0.717369 2.90258C0.717369 2.64676 0.650079 2.6047 0.650079 2.42733C0.651113 2.38568 0.661592 2.34488 0.680653 2.3083C0.699713 2.27173 0.726807 2.24043 0.759696 2.217C0.739897 2.21267 0.721178 2.20407 0.704732 2.19173C0.688287 2.1794 0.674479 2.16361 0.664188 2.14537C0.779526 2.11137 0.90158 2.11137 1.01692 2.14537C1.05523 2.15122 1.09183 2.16588 1.1241 2.18829C1.15637 2.21069 1.18352 2.2403 1.20359 2.27498C1.22434 2.32443 1.23505 2.37786 1.23505 2.43188C1.23505 2.4859 1.22434 2.53933 1.20359 2.58878C1.13847 2.73204 0.832413 3.40966 0.736905 3.6234C0.715491 3.67062 0.704723 3.72235 0.70543 3.77462C0.705989 3.79856 0.711082 3.82214 0.720415 3.844C0.729747 3.86586 0.743132 3.88556 0.759793 3.90196C0.776454 3.91836 0.796058 3.93112 0.817468 3.93951C0.838877 3.9479 0.861665 3.95176 0.884508 3.95085C0.9225 3.95234 0.959661 3.93896 0.988753 3.91332C1.01784 3.88767 1.03678 3.85161 1.04188 3.81214C1.04188 3.76211 1.01583 3.73255 0.978931 3.73255C0.89102 3.73255 0.896446 3.811 0.913812 3.86103C0.889378 3.8537 0.868172 3.83763 0.853892 3.8156C0.839612 3.79358 0.833163 3.767 0.835669 3.74051C0.800992 3.73351 0.770041 3.71325 0.748843 3.68366C0.758486 3.6687 0.77139 3.65636 0.786488 3.64766C0.801586 3.63896 0.818445 3.63416 0.835669 3.63364C0.818304 3.5586 0.866058 3.52676 0.913812 3.50971C0.898617 3.56428 0.888849 3.6234 0.978931 3.6234C1.00585 3.61922 1.03334 3.62212 1.05892 3.63184C1.0845 3.64157 1.10736 3.65782 1.12545 3.67911C1.12545 3.62113 1.13305 3.38578 1.13305 3.38578C1.13305 3.29937 1.02451 3.30165 0.946371 3.3278C0.950785 3.30299 0.96005 3.2794 0.973583 3.25852C0.987115 3.23764 1.00462 3.21991 1.02501 3.20646C1.04539 3.19301 1.06821 3.18411 1.09203 3.18034C1.11586 3.17657 1.14017 3.178 1.16343 3.18454C1.14347 3.17569 1.1265 3.16078 1.1147 3.14173C1.1029 3.12268 1.09682 3.10037 1.09723 3.07767C1.10054 3.03826 1.11195 3.00007 1.13069 2.96573C1.14942 2.93138 1.17503 2.90169 1.20576 2.8787L1.22421 3.74506Z" fill="#F5C832"/>
<path d="M1.18298 3.74489C1.18396 3.78998 1.19347 3.83442 1.21096 3.87564C1.22844 3.91685 1.25355 3.95403 1.28484 3.98501C1.31613 4.01599 1.35298 4.04016 1.39324 4.05613C1.43351 4.07209 1.4764 4.07953 1.51943 4.07802C1.5582 4.08308 1.59756 4.07935 1.63483 4.06707C1.6721 4.0548 1.70641 4.03427 1.73544 4.00688C1.76447 3.97949 1.78754 3.94587 1.80308 3.90832C1.81861 3.87077 1.82626 3.83015 1.82549 3.78923C1.8264 3.70555 1.80698 3.62299 1.76906 3.54934L1.30997 2.5545C1.2933 2.51285 1.28624 2.46767 1.28934 2.42262C1.28934 2.37618 1.30695 2.33165 1.3383 2.29881C1.36964 2.26597 1.41216 2.24753 1.45648 2.24753C1.50081 2.24753 1.54332 2.26597 1.57467 2.29881C1.60601 2.33165 1.62362 2.37618 1.62362 2.42262C1.62362 2.53631 1.56936 2.58065 1.51509 2.58065C1.46082 2.58065 1.4185 2.55109 1.4185 2.50107C1.4185 2.45104 1.43478 2.45104 1.45865 2.45104C1.51726 2.45104 1.4999 2.53404 1.4999 2.53404C1.50783 2.53232 1.51532 2.5288 1.52181 2.52372C1.52831 2.51865 1.53366 2.51213 1.53749 2.50465C1.54132 2.49717 1.54353 2.4889 1.54398 2.48042C1.54442 2.47194 1.54308 2.46346 1.54005 2.45559C1.56215 2.45076 1.58225 2.43884 1.59757 2.42148C1.58244 2.40409 1.5622 2.39249 1.54005 2.38851C1.54434 2.38029 1.54653 2.37106 1.54643 2.3617C1.54632 2.35234 1.54392 2.34316 1.53945 2.33505C1.53498 2.32695 1.52859 2.32018 1.52091 2.3154C1.51322 2.31063 1.50449 2.308 1.49555 2.30778C1.50257 2.32378 1.50447 2.34173 1.50098 2.35895C1.48255 2.35224 1.46283 2.35036 1.44354 2.35348C1.42426 2.3566 1.406 2.36463 1.39036 2.37686C1.37472 2.38909 1.36219 2.40515 1.35385 2.42363C1.34551 2.44211 1.34162 2.46245 1.34253 2.48288C1.34051 2.51151 1.34516 2.54023 1.35608 2.56656C1.367 2.5929 1.38386 2.61606 1.40521 2.63406C1.42656 2.65207 1.45176 2.66437 1.47865 2.66992C1.50554 2.67547 1.53332 2.6741 1.55959 2.66592C1.54371 2.67445 1.5303 2.68728 1.52075 2.70307C1.51121 2.71887 1.50588 2.73706 1.50532 2.75574C1.52265 2.74853 1.54097 2.74431 1.55959 2.74324C1.53473 2.77538 1.52131 2.81557 1.5216 2.85693C1.54656 2.84443 1.57153 2.82169 1.60409 2.83533C1.59245 2.86647 1.58795 2.90004 1.59095 2.93334C1.59395 2.96663 1.60437 2.99872 1.62137 3.02704C1.63836 3.05535 1.66146 3.07908 1.68881 3.09634C1.71616 3.11359 1.74699 3.12389 1.77882 3.12639C1.72504 3.06369 1.69393 2.98323 1.69091 2.899C1.69091 2.64319 1.7582 2.60112 1.7582 2.42375C1.75712 2.38239 1.74673 2.34188 1.72787 2.30553C1.70901 2.26918 1.68221 2.238 1.64967 2.21455C1.66947 2.21023 1.68819 2.20162 1.70463 2.18929C1.72108 2.17696 1.73489 2.16117 1.74518 2.14293C1.62984 2.10893 1.50779 2.10893 1.39245 2.14293C1.35421 2.14901 1.31769 2.16376 1.28545 2.18614C1.25321 2.20853 1.22602 2.23801 1.20577 2.27254C1.18503 2.32199 1.17432 2.37542 1.17432 2.42944C1.17432 2.48346 1.18503 2.53688 1.20577 2.58634C1.27089 2.72959 1.57695 3.40722 1.67138 3.62096C1.69271 3.66582 1.70385 3.71524 1.70394 3.76536C1.7046 3.79057 1.70022 3.81564 1.69108 3.83897C1.68194 3.8623 1.66824 3.88337 1.65087 3.90083C1.63349 3.91828 1.61282 3.93173 1.59018 3.94032C1.56755 3.9489 1.54345 3.95243 1.51943 3.95068C1.48144 3.95217 1.44428 3.93879 1.41519 3.91315C1.3861 3.88751 1.36716 3.85144 1.36206 3.81197C1.36206 3.76194 1.38702 3.73238 1.42392 3.73238C1.51183 3.73238 1.50641 3.81083 1.48904 3.86086C1.51348 3.85353 1.53468 3.83746 1.54896 3.81544C1.56324 3.79341 1.56969 3.76684 1.56719 3.74034C1.60123 3.73452 1.63208 3.71593 1.65401 3.68804C1.64437 3.67308 1.63146 3.66074 1.61637 3.65204C1.60127 3.64334 1.58441 3.63854 1.56719 3.63802C1.58455 3.56298 1.53571 3.53114 1.48904 3.51409C1.50424 3.56866 1.51401 3.62778 1.42392 3.62778C1.39701 3.6236 1.36952 3.6265 1.34394 3.63622C1.31836 3.64595 1.29549 3.6622 1.27741 3.6835C1.27741 3.62551 1.26981 3.39016 1.26981 3.39016C1.26981 3.30375 1.37834 3.30603 1.45648 3.33218C1.45207 3.30737 1.4428 3.28378 1.42927 3.2629C1.41574 3.24202 1.39823 3.22429 1.37785 3.21084C1.35746 3.19739 1.33464 3.1885 1.31082 3.18472C1.287 3.18095 1.26269 3.18238 1.23942 3.18892C1.25938 3.18007 1.27635 3.16516 1.28815 3.14611C1.29995 3.12706 1.30604 3.10475 1.30562 3.08205C1.30232 3.04264 1.2909 3.00445 1.27217 2.97011C1.25343 2.93576 1.22782 2.90607 1.19709 2.88308L1.18298 3.74489Z" fill="#F5C832"/>
<path d="M1.22421 7.59703C1.22324 7.64222 1.21369 7.68676 1.19614 7.72805C1.17859 7.76934 1.15338 7.80657 1.12197 7.83757C1.09056 7.86856 1.05359 7.89271 1.0132 7.90861C0.972804 7.9245 0.929798 7.93183 0.886679 7.93016C0.847909 7.93522 0.808553 7.93149 0.771282 7.91921C0.734011 7.90694 0.699696 7.88641 0.670666 7.85902C0.641636 7.83163 0.61857 7.79801 0.603033 7.76046C0.587496 7.72291 0.579852 7.68229 0.580619 7.64137C0.579798 7.55756 0.599609 7.47494 0.638141 7.40148L1.09615 6.41233C1.11322 6.37078 1.12066 6.32558 1.11785 6.28044C1.11446 6.2363 1.09532 6.19511 1.06425 6.16507C1.03318 6.13504 0.992448 6.11836 0.95017 6.11836C0.907891 6.11836 0.867162 6.13504 0.83609 6.16507C0.805018 6.19511 0.785881 6.2363 0.782488 6.28044C0.782488 6.39414 0.836754 6.43962 0.89102 6.43962C0.945286 6.43962 0.987613 6.40892 0.987613 6.35889C0.987613 6.30887 0.971333 6.30887 0.948542 6.30887C0.888849 6.30887 0.906214 6.39186 0.906214 6.39186C0.898332 6.38991 0.890955 6.38616 0.884605 6.3809C0.878255 6.37563 0.873086 6.36896 0.869464 6.36137C0.865841 6.35378 0.863853 6.34545 0.863639 6.33697C0.863426 6.32849 0.864992 6.32006 0.868228 6.31228C0.846392 6.30692 0.826676 6.29461 0.811792 6.27703C0.826972 6.26029 0.846657 6.24879 0.868228 6.24406C0.86425 6.2358 0.862297 6.22664 0.862546 6.21739C0.862794 6.20815 0.865236 6.19911 0.869652 6.1911C0.874067 6.18309 0.880317 6.17636 0.887837 6.17151C0.895357 6.16666 0.903911 6.16386 0.912726 6.16334C0.906252 6.17949 0.904368 6.19725 0.9073 6.2145C0.925732 6.20779 0.945454 6.20591 0.964739 6.20903C0.984023 6.21216 1.00228 6.22018 1.01792 6.23241C1.03356 6.24464 1.04609 6.2607 1.05443 6.27918C1.06277 6.29767 1.06666 6.31801 1.06576 6.33843C1.0677 6.36708 1.06301 6.3958 1.05209 6.42215C1.04117 6.44849 1.02435 6.47169 1.00304 6.48977C0.981732 6.50785 0.956576 6.52028 0.929705 6.526C0.902834 6.53171 0.875044 6.53055 0.848692 6.52261C0.864418 6.53105 0.877726 6.5437 0.88726 6.55928C0.896793 6.57486 0.90221 6.59281 0.902958 6.6113C0.885492 6.60477 0.867212 6.60094 0.848692 6.59993C0.873476 6.63219 0.887232 6.67221 0.887764 6.71362C0.861716 6.70112 0.837839 6.67838 0.804194 6.69316C0.815421 6.72402 0.819628 6.7572 0.816482 6.79007C0.813337 6.82293 0.802925 6.85458 0.786072 6.8825C0.769219 6.91041 0.746389 6.93383 0.719393 6.9509C0.692396 6.96796 0.661976 6.9782 0.630544 6.98081C0.684896 6.91848 0.716091 6.83779 0.718454 6.75341C0.718454 6.49874 0.651165 6.45553 0.651165 6.27817C0.65275 6.23724 0.663376 6.19724 0.682208 6.16134C0.70104 6.12544 0.727564 6.0946 0.759696 6.07124C0.739825 6.06712 0.721023 6.0586 0.704551 6.04625C0.68808 6.03389 0.674318 6.01799 0.664188 5.99962C0.779526 5.96562 0.90158 5.96562 1.01692 5.99962C1.0553 6.00568 1.09193 6.02054 1.1242 6.04314C1.15647 6.06574 1.18358 6.09552 1.20359 6.13037C1.2244 6.1798 1.23515 6.23324 1.23515 6.28727C1.23515 6.34129 1.2244 6.39473 1.20359 6.44416C1.13847 6.58628 0.832413 7.26391 0.736905 7.47652C0.716554 7.52209 0.705819 7.57173 0.70543 7.62205C0.705989 7.64598 0.711082 7.66957 0.720415 7.69143C0.729747 7.71329 0.743132 7.73299 0.759793 7.74939C0.776454 7.76578 0.796058 7.77855 0.817468 7.78694C0.838877 7.79533 0.861665 7.79918 0.884508 7.79827C0.922014 7.79987 0.95877 7.78696 0.987786 7.76201C1.0168 7.73707 1.03605 7.70182 1.04188 7.66298C1.04188 7.61409 1.01583 7.58453 0.978931 7.58453C0.89102 7.58453 0.896446 7.66184 0.913812 7.71186C0.889378 7.70454 0.868172 7.68846 0.853892 7.66644C0.839612 7.64442 0.833163 7.61784 0.835669 7.59135C0.801718 7.58602 0.770819 7.56781 0.748843 7.54018C0.758486 7.52522 0.77139 7.51288 0.786488 7.50419C0.801586 7.49549 0.818445 7.49068 0.835669 7.49016C0.818304 7.41512 0.866058 7.38329 0.913812 7.36509C0.898617 7.42081 0.888849 7.47879 0.978931 7.47879C1.00595 7.47453 1.03356 7.47751 1.05918 7.48745C1.0848 7.49739 1.1076 7.51397 1.12545 7.53564C1.12545 7.47538 1.13305 7.2423 1.13305 7.2423C1.13305 7.15476 1.02451 7.15703 0.946371 7.18205C0.951042 7.15744 0.960492 7.1341 0.974135 7.11348C0.987777 7.09286 1.00532 7.07539 1.02568 7.06217C1.04603 7.04895 1.06876 7.04026 1.09246 7.03662C1.11616 7.03299 1.14032 7.0345 1.16343 7.04106C1.14347 7.03221 1.1265 7.0173 1.1147 6.99825C1.1029 6.97921 1.09682 6.95689 1.09723 6.93419C1.10065 6.8945 1.1121 6.85603 1.13082 6.82133C1.14953 6.78663 1.17508 6.75651 1.20576 6.73295L1.22421 7.59703Z" fill="#F5C832"/>
<path d="M1.1833 7.59686C1.18428 7.64196 1.19379 7.6864 1.21127 7.72761C1.22876 7.76883 1.25387 7.806 1.28516 7.83698C1.31645 7.86796 1.3533 7.89214 1.39356 7.9081C1.43383 7.92407 1.47672 7.93151 1.51975 7.92999C1.55852 7.93505 1.59788 7.93132 1.63515 7.91905C1.67242 7.90677 1.70673 7.88624 1.73576 7.85885C1.76479 7.83146 1.78786 7.79785 1.8034 7.76029C1.81893 7.72274 1.82658 7.68213 1.82581 7.64121C1.82649 7.55755 1.80708 7.47506 1.76937 7.40131L1.31137 6.41216C1.29471 6.37051 1.28764 6.32532 1.29075 6.28028C1.29075 6.23384 1.30836 6.1893 1.3397 6.15647C1.37105 6.12363 1.41356 6.10519 1.45789 6.10519C1.50221 6.10519 1.54473 6.12363 1.57607 6.15647C1.60742 6.1893 1.62503 6.23384 1.62503 6.28028C1.62503 6.39397 1.57076 6.43945 1.51649 6.43945C1.46223 6.43945 1.4199 6.40875 1.4199 6.35873C1.4199 6.3087 1.43618 6.3087 1.46006 6.3087C1.51866 6.3087 1.5013 6.3917 1.5013 6.3917C1.5092 6.39013 1.51667 6.38674 1.52317 6.38178C1.52966 6.37682 1.53503 6.37041 1.53887 6.36301C1.54271 6.35561 1.54494 6.34741 1.54539 6.339C1.54583 6.33059 1.54449 6.32218 1.54146 6.31438C1.56368 6.30925 1.58381 6.29692 1.59898 6.27914C1.58323 6.26259 1.56326 6.25114 1.54146 6.24617C1.55557 6.19842 1.54146 6.17568 1.49696 6.16544C1.50397 6.18144 1.50588 6.19938 1.50238 6.21661C1.48395 6.20989 1.46423 6.20802 1.44495 6.21114C1.42566 6.21426 1.4074 6.22229 1.39176 6.23452C1.37613 6.24675 1.36359 6.26281 1.35525 6.28129C1.34691 6.29977 1.34302 6.32011 1.34393 6.34053C1.34199 6.36919 1.34667 6.39791 1.35759 6.42425C1.36851 6.4506 1.38534 6.4738 1.40665 6.49188C1.42795 6.50996 1.45311 6.52238 1.47998 6.5281C1.50685 6.53382 1.53464 6.53266 1.56099 6.52472C1.54527 6.53315 1.53196 6.5458 1.52242 6.56138C1.51289 6.57696 1.50747 6.59491 1.50673 6.6134C1.52419 6.60687 1.54247 6.60304 1.56099 6.60203C1.53572 6.63393 1.52224 6.67428 1.52301 6.71573C1.54797 6.70322 1.57293 6.68048 1.60549 6.69526C1.59471 6.72584 1.59078 6.75859 1.59401 6.79101C1.59723 6.82343 1.60753 6.85463 1.62411 6.88221C1.64068 6.9098 1.66309 6.93302 1.68959 6.95008C1.7161 6.96715 1.74599 6.9776 1.77697 6.98064C1.72303 6.91805 1.69189 6.83752 1.68906 6.75325C1.68906 6.49857 1.75635 6.45537 1.75635 6.278C1.7551 6.23668 1.74463 6.19624 1.72578 6.15991C1.70694 6.12358 1.68024 6.09238 1.64782 6.0688C1.66769 6.06468 1.68649 6.05616 1.70296 6.0438C1.71943 6.03145 1.7332 6.01555 1.74333 5.99717C1.62799 5.96318 1.50593 5.96318 1.3906 5.99717C1.35226 6.00338 1.31569 6.01831 1.28344 6.04089C1.25119 6.06348 1.22405 6.09319 1.20392 6.12792C1.18311 6.17736 1.17236 6.2308 1.17236 6.28482C1.17236 6.33885 1.18311 6.39229 1.20392 6.44172C1.26904 6.58384 1.5751 7.26146 1.66952 7.47407C1.69072 7.51939 1.70186 7.56914 1.70208 7.6196C1.70242 7.64442 1.69787 7.66904 1.68873 7.69194C1.67959 7.71484 1.66604 7.73551 1.64893 7.75269C1.63183 7.76986 1.61153 7.78316 1.58931 7.79175C1.56708 7.80035 1.5434 7.80406 1.51975 7.80265C1.48233 7.80297 1.4461 7.78892 1.4179 7.76315C1.3897 7.73738 1.3715 7.70169 1.36672 7.66281C1.36672 7.61392 1.39168 7.58436 1.42858 7.58436C1.51649 7.58436 1.51107 7.66167 1.4937 7.7117C1.51814 7.70437 1.53934 7.6883 1.55362 7.66627C1.5679 7.64425 1.57435 7.61767 1.57185 7.59118C1.6058 7.58585 1.6367 7.56765 1.65867 7.54002C1.64903 7.52506 1.63612 7.51272 1.62103 7.50402C1.60593 7.49532 1.58907 7.49051 1.57185 7.48999C1.58921 7.41495 1.54037 7.38312 1.4937 7.36493C1.5089 7.42064 1.51866 7.47862 1.42858 7.47862C1.40157 7.47436 1.37396 7.47734 1.34834 7.48728C1.32271 7.49722 1.29991 7.5138 1.28207 7.53547C1.28207 7.47521 1.27447 7.24214 1.27447 7.24214C1.27447 7.15459 1.383 7.15687 1.46114 7.18188C1.45647 7.15727 1.44702 7.13393 1.43338 7.11331C1.41974 7.09269 1.40219 7.07523 1.38184 7.062C1.36148 7.04878 1.33875 7.04009 1.31505 7.03646C1.29135 7.03283 1.2672 7.03434 1.24408 7.0409C1.26404 7.03204 1.28101 7.01713 1.29281 6.99809C1.30461 6.97904 1.3107 6.95673 1.31028 6.93402C1.30686 6.89433 1.29541 6.85586 1.2767 6.82116C1.25798 6.78647 1.23244 6.75634 1.20175 6.73278L1.1833 7.59686Z" fill="#F5C832"/>
<path d="M1.2039 1.36532C1.2039 1.36532 1.30375 1.27777 1.33739 1.32098C1.39166 1.3926 1.17025 1.74506 1.17025 1.86899C1.17025 2.0725 1.29941 2.12821 1.46112 2.15663C1.55513 2.16614 1.64991 2.16347 1.7433 2.14868C1.73245 2.12872 1.71661 2.11225 1.69749 2.10103C1.67836 2.08981 1.65668 2.08427 1.63477 2.08501C1.67299 2.06401 1.70484 2.03222 1.7267 1.99323C1.74857 1.95425 1.75958 1.90964 1.7585 1.86444C1.7585 1.68935 1.68903 1.61772 1.68903 1.41989C1.69904 1.33093 1.72877 1.24566 1.77586 1.1709C1.74428 1.17215 1.71341 1.18111 1.68571 1.19707C1.65802 1.21303 1.63427 1.23554 1.61635 1.26282C1.59843 1.29009 1.58684 1.32137 1.5825 1.35417C1.57816 1.38697 1.58119 1.42037 1.59136 1.45173C1.57973 1.45385 1.56779 1.4531 1.55649 1.44955C1.54519 1.446 1.53483 1.43974 1.52624 1.43126C1.52288 1.44962 1.5239 1.46856 1.5292 1.48641C1.5345 1.50426 1.54392 1.52046 1.55663 1.53359C1.53709 1.54382 1.52298 1.53359 1.49368 1.53359C1.49672 1.55503 1.50449 1.57543 1.51635 1.59319C1.52822 1.61095 1.54386 1.62557 1.56205 1.63591C1.53701 1.62718 1.51034 1.62486 1.48427 1.62916C1.4582 1.63346 1.43349 1.64425 1.41223 1.66063C1.39096 1.677 1.37376 1.69848 1.36206 1.72326C1.35036 1.74804 1.34451 1.7754 1.34499 1.80304C1.34257 1.83599 1.35258 1.86862 1.37287 1.89391C1.39317 1.91921 1.42212 1.93516 1.45352 1.93834C1.47316 1.93738 1.49223 1.93111 1.50887 1.92015C1.51281 1.93201 1.51437 1.9446 1.51343 1.95713C1.5125 1.96965 1.5091 1.98184 1.50345 1.99291C1.54035 1.98154 1.56531 1.95881 1.54794 1.90992C1.56068 1.90934 1.57319 1.90614 1.58473 1.90048C1.59628 1.89482 1.60665 1.88682 1.61523 1.87694C1.60744 1.86611 1.59724 1.85743 1.58551 1.85169C1.57377 1.84594 1.56088 1.84329 1.54794 1.84397C1.56856 1.7985 1.54794 1.77348 1.51104 1.75302C1.51104 1.75302 1.53275 1.84397 1.4774 1.84397C1.45244 1.84397 1.42964 1.83601 1.42964 1.79736C1.4304 1.78564 1.43349 1.77423 1.43871 1.76384C1.44393 1.75345 1.45117 1.74432 1.45996 1.73704C1.46875 1.72976 1.4789 1.72448 1.48975 1.72156C1.50061 1.71863 1.51193 1.71812 1.52298 1.72005C1.58701 1.72005 1.6402 1.76666 1.6402 1.87467C1.6402 1.98268 1.56314 2.02475 1.46112 2.0293C1.4409 2.03246 1.42026 2.03094 1.40066 2.02486C1.38105 2.01877 1.36296 2.00826 1.34765 1.99406C1.33234 1.97987 1.32019 1.96233 1.31204 1.94269C1.30389 1.92304 1.29995 1.90177 1.30049 1.88036C1.30049 1.74847 1.48174 1.44831 1.48174 1.33235C1.48132 1.31192 1.47677 1.29181 1.46839 1.27336C1.46 1.25491 1.44797 1.23854 1.4331 1.22532C1.41822 1.2121 1.40084 1.20234 1.3821 1.19668C1.36335 1.19103 1.34368 1.1896 1.32437 1.1925C1.2551 1.20254 1.19197 1.23947 1.14746 1.29596L1.2039 1.36532Z" fill="#F5C832"/>
<path d="M1.20358 1.36532C1.20358 1.36532 1.10373 1.27777 1.07009 1.32098C1.01582 1.3926 1.23723 1.75074 1.23723 1.86444C1.23723 2.06795 1.10807 2.12366 0.947446 2.15209C0.853069 2.16161 0.757932 2.15894 0.664178 2.14413C0.675028 2.12418 0.690868 2.1077 0.709993 2.09648C0.729117 2.08527 0.750802 2.07972 0.77271 2.08046C0.735558 2.0595 0.704591 2.02829 0.683164 1.99021C0.661736 1.95213 0.650667 1.90864 0.651154 1.86444C0.651154 1.68935 0.720614 1.61772 0.720614 1.41989C0.710609 1.33093 0.680875 1.24566 0.633789 1.1709C0.665373 1.17215 0.696242 1.18111 0.723936 1.19707C0.75163 1.21303 0.775382 1.23554 0.793302 1.26282C0.811222 1.29009 0.822813 1.32137 0.827152 1.35417C0.83149 1.38697 0.828457 1.42037 0.818293 1.45173C0.829919 1.45394 0.84188 1.45324 0.853197 1.44968C0.864515 1.44612 0.874869 1.43981 0.883412 1.43126C0.88645 1.44953 0.885383 1.46829 0.880296 1.48605C0.87521 1.50381 0.866244 1.52009 0.854109 1.53359C0.872559 1.54382 0.886668 1.53359 0.917057 1.53359C0.913505 1.55499 0.905423 1.57529 0.893403 1.593C0.881384 1.61071 0.865732 1.62537 0.847597 1.63591C0.872636 1.62718 0.89931 1.62486 0.92538 1.62916C0.95145 1.63346 0.976155 1.64425 0.99742 1.66063C1.01869 1.677 1.03589 1.69848 1.04759 1.72326C1.05929 1.74804 1.06514 1.7754 1.06466 1.80304C1.06708 1.83599 1.05707 1.86862 1.03677 1.89391C1.01648 1.91921 0.987526 1.93516 0.956129 1.93834C0.936489 1.93738 0.917421 1.93111 0.900777 1.92015C0.896836 1.93201 0.895284 1.9446 0.896218 1.95713C0.897152 1.96965 0.900552 1.98184 0.906204 1.99291C0.869303 1.98154 0.844341 1.95881 0.861706 1.90992C0.836035 1.90852 0.811895 1.89669 0.794416 1.87694C0.802545 1.86465 0.813694 1.85488 0.826685 1.84868C0.839676 1.84247 0.854026 1.84006 0.868218 1.8417C0.847597 1.79622 0.868218 1.77121 0.905119 1.75074C0.905119 1.75074 0.883412 1.8417 0.938763 1.8417C0.964811 1.8417 0.986517 1.83374 0.986517 1.79508C0.985761 1.78337 0.982673 1.77195 0.977452 1.76156C0.97223 1.75118 0.964991 1.74205 0.9562 1.73476C0.947409 1.72748 0.93726 1.72221 0.926407 1.71928C0.915553 1.71636 0.904235 1.71584 0.89318 1.71777C0.829146 1.71777 0.775966 1.76439 0.775966 1.8724C0.775966 1.98041 0.853023 2.02247 0.955043 2.02702C0.975265 2.03018 0.995902 2.02867 1.0155 2.02258C1.03511 2.01649 1.0532 2.00598 1.06851 1.99179C1.08382 1.97759 1.09597 1.96006 1.10412 1.94041C1.11227 1.92077 1.11621 1.89949 1.11567 1.87808C1.11458 1.75074 0.933337 1.44604 0.933337 1.33007C0.934278 1.31043 0.939009 1.2912 0.947242 1.27353C0.955476 1.25586 0.967042 1.24012 0.981242 1.22727C0.995443 1.21441 1.01198 1.2047 1.02986 1.19873C1.04775 1.19275 1.0666 1.19063 1.08528 1.1925C1.15376 1.20308 1.21605 1.23996 1.26002 1.29596L1.20358 1.36532Z" fill="#F5C832"/>
<path d="M1.00753 7.57876C1.00753 7.56057 0.969545 7.5708 0.942412 7.57876C0.915279 7.58672 0.897914 7.59923 0.900085 7.61742C0.902256 7.63561 0.9359 7.62538 0.964119 7.61742C0.992337 7.60946 1.0097 7.59468 1.00753 7.57649V7.57876Z" fill="#4EAEC4"/>
<path d="M0.917378 7.63794H0.907611L0.88916 7.61747C0.88916 7.59473 0.906525 7.5754 0.94017 7.56744C0.956803 7.56246 0.97391 7.55941 0.99118 7.55835H1.00095L1.01831 7.57881C1.01831 7.60155 0.999863 7.62202 0.966218 7.62998C0.950235 7.63435 0.933872 7.63701 0.917378 7.63794Z" fill="#4EAEC4"/>
<path d="M8.39888 7.97551C7.77799 7.97721 7.17877 7.73646 6.71821 7.30024C6.25765 6.86402 5.96881 6.26365 5.90808 5.61633C5.90808 5.61633 5.85272 5.59359 5.84513 5.64589C5.82776 5.77096 5.87769 6.15639 5.85924 6.13024C5.82451 6.08135 5.56729 5.35938 5.52062 5.4367C5.45875 5.54243 5.80931 6.36445 5.78978 6.38832C5.71814 6.47701 5.31549 5.59246 5.28293 5.65158C5.16029 5.90171 5.78109 6.71008 5.77675 6.74419C5.76264 6.85106 5.30464 6.30874 5.26665 6.36672C5.17983 6.49747 5.76047 6.97499 5.79086 7.01251C5.87986 7.1262 5.47286 6.81923 5.46527 6.92383C5.4555 7.0091 5.66279 7.18078 5.79086 7.25582C5.91893 7.33086 5.95583 7.30698 5.99056 7.36951C6.02529 7.43204 5.7583 7.33768 5.76481 7.39907C5.77892 7.51277 6.05025 7.49117 6.09041 7.5446C6.13057 7.59804 5.90482 7.55711 5.91459 7.60145C5.92978 7.67876 6.15987 7.69013 6.16312 7.7231C6.16638 7.75608 6.01878 7.73334 6.02855 7.79701C6.03831 7.86068 6.2608 7.83907 6.31615 7.87773C6.37151 7.91639 6.11429 7.87773 6.31615 7.99142C6.54821 8.12402 6.7976 8.22017 7.05634 8.2768C7.36891 8.34161 7.52845 8.26884 7.53931 8.24838C7.55016 8.22791 7.3917 8.26543 7.1703 8.22336C6.94647 8.16725 6.73128 8.07846 6.53105 7.95959C6.49306 7.93685 6.64935 7.89024 6.61679 7.8459C6.58423 7.80155 6.45833 7.85272 6.40949 7.78791C6.37802 7.74698 6.46918 7.74584 6.46701 7.71969C6.46484 7.69354 6.29336 7.65375 6.26297 7.606C6.23258 7.55825 6.34112 7.56734 6.34437 7.53778C6.34763 7.50822 6.23584 7.47752 6.22933 7.44796C6.22282 7.4184 6.35306 7.42636 6.29119 7.38998C6.22933 7.35359 6.047 7.30357 6.01335 7.23649C5.97971 7.16941 6.1501 7.24558 6.1056 7.18305C6.07521 7.13985 5.91133 7.06936 5.87769 6.96703C5.85381 6.89995 5.99273 6.95794 5.9949 6.91587C5.9949 6.84879 5.91242 6.89086 5.88637 6.69644C5.87769 6.63277 5.9949 6.67484 5.9949 6.67484L6.01009 6.64186C6.13057 6.72277 6.23793 6.82333 6.32809 6.93975C6.50717 7.15804 6.55818 7.36383 6.72749 7.50822C6.8078 7.57871 6.80889 7.4798 6.99231 7.59918C7.15299 7.70925 7.30376 7.83445 7.44271 7.97323C7.46985 7.99825 7.59466 7.95049 7.96367 8.03008C8.16119 8.07329 8.20244 8.18243 8.20244 8.18243C8.2663 8.14368 8.32175 8.09141 8.36524 8.02894C8.38586 7.99597 8.40648 8.02894 8.41299 8.02212C8.4195 8.0153 8.41299 7.97664 8.41299 7.97664L8.39888 7.97551Z" fill="#F5C832"/>
<path d="M7.28347 8.30759C7.20291 8.30666 7.12262 8.29791 7.04361 8.28144C6.78442 8.22337 6.53445 8.1269 6.30125 7.99493C6.23939 7.96309 6.21551 7.94149 6.21768 7.92103C6.21985 7.90056 6.25024 7.89488 6.27738 7.88919C6.28737 7.88755 6.29718 7.88488 6.30668 7.88123C6.26205 7.86773 6.21624 7.85897 6.16993 7.85508C6.08745 7.84485 6.01473 7.83462 6.0093 7.79596L6.01582 7.76981C6.03938 7.74951 6.06887 7.73827 6.09939 7.73798C6.11458 7.73798 6.14171 7.73116 6.14388 7.72547C6.11946 7.71466 6.09398 7.70665 6.06791 7.7016C5.99628 7.68227 5.9062 7.65953 5.89534 7.60609C5.91162 7.57198 5.94418 7.57085 5.99736 7.56857C6.02458 7.56652 6.05131 7.55999 6.07659 7.54924C6.04096 7.52493 5.9997 7.51118 5.95721 7.50945C5.86279 7.49353 5.75534 7.47421 5.74557 7.39576C5.77162 7.33891 5.82588 7.35824 5.88992 7.36506C5.9138 7.36506 5.93659 7.36506 5.95395 7.36506C5.95395 7.33322 5.9355 7.32526 5.89752 7.31162C5.85565 7.29694 5.81529 7.27789 5.77705 7.25477C5.66092 7.18542 5.43843 7.00692 5.45145 6.91369C5.45145 6.90118 5.45905 6.88072 5.49052 6.88072C5.56739 6.89813 5.64081 6.92928 5.70758 6.97281C5.73654 6.99032 5.76708 7.00479 5.79875 7.01601C5.77115 6.99929 5.74563 6.97905 5.72278 6.95576C5.45471 6.71472 5.18989 6.45322 5.25718 6.35203C5.30819 6.34067 5.3885 6.4157 5.5144 6.53508C5.58623 6.61573 5.66974 6.68403 5.76185 6.73746C5.7415 6.69066 5.71561 6.64674 5.68479 6.60671C5.51982 6.35658 5.17578 5.83472 5.27346 5.63803C5.31578 5.6278 5.36245 5.71079 5.48401 5.93136C5.58169 6.10759 5.73038 6.37477 5.77596 6.37477C5.75648 6.29152 5.73034 6.21013 5.69782 6.13147C5.57192 5.78356 5.47099 5.49023 5.51114 5.42201C5.56541 5.4095 5.64898 5.58573 5.78898 5.92909C5.81829 6.00413 5.84433 6.07007 5.85953 6.09963C5.85084 6.05851 5.84576 6.01665 5.84434 5.97457C5.8318 5.86137 5.82853 5.74726 5.83457 5.63348C5.83484 5.62726 5.8363 5.62115 5.83887 5.61553C5.84143 5.6099 5.84505 5.60488 5.8495 5.60074C5.85395 5.59661 5.85915 5.59345 5.86479 5.59146C5.87043 5.58947 5.87639 5.58868 5.88232 5.58914C5.8923 5.58952 5.90218 5.59144 5.91162 5.59483C5.96748 6.24261 6.25276 6.84504 6.71132 7.28355C7.16989 7.72206 7.76852 7.96488 8.38941 7.96423C8.39813 7.96582 8.40605 7.97055 8.4118 7.97761C8.41755 7.98467 8.42076 7.99361 8.42088 8.00289V8.00402L8.40894 8.02449L8.39266 8.01426H8.37638C8.32733 8.08407 8.26437 8.14187 8.19188 8.18366C8.16435 8.1417 8.12864 8.10633 8.08711 8.07987C8.04558 8.05342 7.99917 8.03648 7.95094 8.03017C7.81689 7.99916 7.68013 7.98278 7.54286 7.98129H7.47665C7.45061 7.98129 7.43541 7.98129 7.42564 7.97105L7.31711 7.871C7.21246 7.76855 7.09871 7.6768 6.97741 7.597C6.92859 7.56515 6.87211 7.54858 6.81461 7.54924H6.77879C6.75213 7.54858 6.72663 7.53765 6.70716 7.51855C6.61933 7.43362 6.54593 7.33366 6.4901 7.22294C6.43715 7.12446 6.37575 7.03122 6.30668 6.94439C6.21718 6.8292 6.11097 6.72945 5.99194 6.64878V6.67834C5.97891 6.67834 5.94201 6.67038 5.91271 6.67038C5.90808 6.66974 5.90337 6.67012 5.89889 6.67149C5.8944 6.67286 5.89024 6.67519 5.88666 6.67834C5.89969 6.80682 5.9355 6.83524 5.96155 6.8557C5.97169 6.86111 5.98014 6.86945 5.98591 6.87972C5.99168 6.88999 5.99452 6.90178 5.99411 6.91369C5.99411 6.94211 5.95938 6.94211 5.94527 6.94211H5.90511C5.88341 6.94211 5.87689 6.94211 5.87472 6.94893C5.90769 7.02115 5.96216 7.08021 6.02992 7.1172C6.05668 7.13228 6.08088 7.15187 6.10156 7.17519V7.20134C6.09775 7.20605 6.09287 7.20966 6.08736 7.21185C6.08186 7.21404 6.07591 7.21473 6.07008 7.21384H6.01799C6.01799 7.26842 6.11241 7.3048 6.18404 7.33436C6.21554 7.34607 6.24634 7.35974 6.27629 7.37529C6.28714 7.38211 6.29908 7.39121 6.298 7.40371C6.29691 7.41622 6.27738 7.42418 6.2535 7.42986C6.22962 7.43555 6.22203 7.43669 6.21877 7.44237C6.23621 7.45875 6.25598 7.47218 6.27738 7.48216C6.31319 7.50263 6.33707 7.51627 6.33381 7.53446C6.33056 7.55265 6.30777 7.56175 6.28389 7.56857C6.26001 7.57539 6.25024 7.57994 6.24807 7.58563C6.28482 7.62334 6.33054 7.65004 6.38048 7.66294C6.44017 7.68682 6.46622 7.69818 6.46839 7.71638C6.47056 7.73457 6.44994 7.74366 6.43149 7.75048C6.41304 7.75731 6.40653 7.76185 6.40436 7.76868C6.43149 7.80961 6.47708 7.80961 6.52049 7.81074C6.5639 7.81188 6.59755 7.81074 6.616 7.83689V7.86191C6.616 7.88578 6.58344 7.90397 6.55522 7.9233C6.54224 7.93026 6.5305 7.93949 6.52049 7.95059C6.72076 8.0666 6.93505 8.15379 7.15757 8.20981C7.2327 8.22468 7.30903 8.23192 7.38549 8.23141H7.4658H7.5027C7.52007 8.23141 7.52983 8.23142 7.53417 8.24051C7.52224 8.27576 7.4365 8.31555 7.27913 8.31555L7.28347 8.30759ZM5.80852 7.38325C5.77705 7.38325 5.76836 7.38893 5.76728 7.39121C5.77379 7.45943 5.87581 7.47762 5.96046 7.4924C6.02233 7.50377 6.069 7.51172 6.08962 7.5356V7.5572C6.08202 7.57539 6.04729 7.57767 5.99302 7.57994C5.96589 7.57994 5.91597 7.57994 5.91054 7.59245C5.91922 7.6311 6.00496 7.65271 6.06791 7.66976C6.13086 7.68682 6.15799 7.69364 6.16016 7.7141C6.16233 7.73457 6.13086 7.74366 6.09721 7.74935C6.06357 7.75503 6.03752 7.75844 6.02667 7.77322C6.02667 7.80961 6.10915 7.81984 6.16776 7.8278C6.21593 7.82997 6.26334 7.84113 6.30777 7.86077L6.32079 7.88237C6.32079 7.89601 6.30125 7.89943 6.27629 7.90397C6.25133 7.90852 6.23613 7.91307 6.23396 7.91875C6.23179 7.92444 6.23396 7.9324 6.30559 7.96992C6.53698 8.10113 6.78516 8.19685 7.04253 8.25415C7.12009 8.27036 7.19895 8.27873 7.27804 8.27917C7.36144 8.28859 7.44565 8.27198 7.52007 8.23141L7.47123 8.24165H7.38983C7.31227 8.24585 7.23451 8.24243 7.15757 8.23141C6.93258 8.17572 6.71626 8.08691 6.51506 7.96764C6.50421 7.93353 6.52266 7.92103 6.54871 7.90397C6.57475 7.88692 6.59755 7.87214 6.59972 7.85736C6.60189 7.84258 6.55305 7.83234 6.5194 7.83234C6.49649 7.83597 6.4731 7.83417 6.45094 7.82709C6.42878 7.82001 6.40841 7.80782 6.39134 7.79141L6.38048 7.75844C6.38048 7.74139 6.40327 7.73343 6.42064 7.72547C6.42907 7.72324 6.43688 7.71895 6.44343 7.71297C6.41998 7.69904 6.39526 7.68761 6.36963 7.67886C6.32234 7.66538 6.27856 7.6409 6.24156 7.60723V7.5788C6.24156 7.56175 6.26869 7.55493 6.29149 7.54811C6.31428 7.54129 6.32622 7.53787 6.3273 7.53105C6.31222 7.51979 6.29624 7.50991 6.27955 7.50149C6.24156 7.47989 6.2166 7.46397 6.21117 7.44692C6.20575 7.42986 6.24048 7.41281 6.26218 7.40713C6.27183 7.40552 6.28129 7.40285 6.2904 7.39917C6.25784 7.38211 6.22528 7.36961 6.19055 7.35483C6.11132 7.32299 6.02124 7.28547 5.99628 7.24113V7.20816C6.00822 7.18769 6.03644 7.19338 6.06031 7.19565H6.08528C6.08528 7.17291 6.05597 7.15472 6.02558 7.13312C5.96372 7.08878 5.88558 7.03534 5.86279 6.96713C5.85979 6.9622 5.8582 6.95648 5.8582 6.95064C5.8582 6.9448 5.85979 6.93908 5.86279 6.93415C5.87147 6.91937 5.89209 6.9171 5.91054 6.9171H5.94635C5.95938 6.9171 5.97349 6.9171 5.97349 6.91028C5.97349 6.90346 5.96589 6.88413 5.9507 6.87048C5.9241 6.85025 5.90239 6.82377 5.88731 6.79317C5.87223 6.76257 5.86421 6.72869 5.86387 6.69426C5.86295 6.68851 5.86315 6.68262 5.86445 6.67696C5.86576 6.67129 5.86814 6.66596 5.87147 6.66129C5.89426 6.634 5.98 6.66129 5.9876 6.66129V6.63286C6.12013 6.70273 6.23504 6.80441 6.32296 6.92961C6.39351 7.01654 6.4567 7.10974 6.51181 7.20816C6.5675 7.3173 6.64096 7.41541 6.72887 7.49808C6.74476 7.51375 6.76565 7.52267 6.78748 7.52309H6.81461C6.87608 7.5268 6.93507 7.54978 6.98392 7.58904C7.10606 7.66902 7.22055 7.76116 7.32579 7.86418L7.43433 7.96423C7.44682 7.96725 7.45981 7.96725 7.47231 7.96423H7.53852C7.67732 7.96509 7.81562 7.98186 7.95094 8.01426C8.15172 8.05746 8.19513 8.16775 8.1973 8.17343C8.24851 8.12475 8.29672 8.07273 8.34165 8.01767C8.34462 8.01181 8.34897 8.00686 8.35429 8.00327C8.35961 7.99969 8.36573 7.9976 8.37204 7.9972L8.39266 8.00402V7.97105L8.38289 7.98242C7.7621 7.98227 7.16364 7.7398 6.7043 7.30233C6.24497 6.86487 5.95771 6.2638 5.8986 5.61643H5.88341C5.88001 5.61594 5.87655 5.61622 5.87327 5.61726C5.86998 5.61829 5.86695 5.62006 5.86438 5.62243C5.8618 5.6248 5.85974 5.62773 5.85835 5.63101C5.85695 5.63429 5.85624 5.63785 5.85627 5.64144C5.85088 5.75258 5.85414 5.86399 5.86604 5.97457C5.87581 6.10418 5.87689 6.12464 5.86604 6.13147C5.83674 6.11441 5.81178 6.05188 5.76728 5.94046C5.70107 5.77674 5.56432 5.43793 5.52634 5.43565C5.48835 5.50046 5.63487 5.89043 5.71518 6.12692C5.7955 6.3634 5.80418 6.37705 5.79441 6.38955L5.77379 6.39865C5.71952 6.39865 5.61533 6.21901 5.46339 5.94387C5.41393 5.83999 5.35389 5.74202 5.28431 5.65167C5.19857 5.83472 5.53719 6.34749 5.69999 6.59534C5.77162 6.70904 5.78573 6.72609 5.78356 6.73746V6.75338L5.76077 6.76816C5.72061 6.76816 5.63595 6.68971 5.4992 6.5601C5.43316 6.48629 5.35709 6.42308 5.27346 6.3725C5.20725 6.47141 5.60557 6.82728 5.7358 6.9478L5.79658 7.00351C5.80852 7.01829 5.81503 7.02852 5.81069 7.03762C5.78356 7.04557 5.75317 7.03079 5.69673 7.0001C5.63198 6.9588 5.56123 6.92884 5.48727 6.91141C5.4699 6.91141 5.46881 6.91937 5.46881 6.92392C5.45905 6.99896 5.65006 7.16382 5.78464 7.24454C5.82205 7.2675 5.86172 7.28618 5.90294 7.30025C5.92065 7.30411 5.9374 7.31175 5.95216 7.32271C5.96691 7.33367 5.97935 7.3477 5.98868 7.36392C5.97783 7.42986 5.93225 7.39689 5.88558 7.39121C5.85844 7.39121 5.82914 7.38552 5.80635 7.38552L5.80852 7.38325Z" fill="#F5C832"/>
<path d="M9.34634 8.41567C9.29533 8.40543 9.30184 8.4475 9.30184 8.4475C9.30381 8.474 9.2976 8.50047 9.28411 8.52299C9.27063 8.54551 9.25059 8.56289 9.22695 8.57257C9.19439 8.58166 9.21067 8.60667 9.19873 8.62941L9.06198 8.62259C8.80913 8.75269 8.52413 8.79795 8.24583 8.7522C8.24583 8.7522 8.17636 8.80564 8.11559 8.8659C8.05481 8.92616 8.00706 8.93525 7.99946 8.97959C7.99186 9.02394 8.03202 9.04895 8.08845 9.05122C8.13545 9.04509 8.18023 9.02672 8.21869 8.99779C8.22224 9.01192 8.23009 9.02446 8.24106 9.03349C8.25203 9.04252 8.26552 9.04755 8.27947 9.04781C8.32961 9.04539 8.37906 9.03464 8.42599 9.01598C8.4705 9.03605 8.51864 9.04575 8.56708 9.0444C8.60611 9.03682 8.64312 9.02053 8.67561 8.99665C8.67561 8.99665 8.69189 9.07055 8.75158 9.07282C8.80834 9.06137 8.86115 9.03429 8.90461 8.99437C8.91705 9.00917 8.93244 9.02092 8.9497 9.02878C8.96695 9.03664 8.98565 9.04042 9.00446 9.03985C9.05074 9.02611 9.09294 9.00029 9.1271 8.96481C9.16949 8.98259 9.21602 8.98656 9.2606 8.97618C9.30892 8.9568 9.35236 8.92607 9.38758 8.88636C9.4024 8.89957 9.41977 8.90926 9.43851 8.91476C9.45725 8.92025 9.4769 8.92143 9.49611 8.9182C9.54821 8.90114 9.58185 8.82497 9.58185 8.82497C9.65538 8.85642 9.737 8.86044 9.81302 8.83634C9.87923 8.80337 9.86078 8.69649 9.86078 8.69649C9.86078 8.69649 10.2439 8.75448 10.2276 8.49298C10.2276 8.46569 9.61224 8.47365 9.342 8.42135L9.34634 8.41567Z" fill="#F5C832"/>
<path d="M8.75824 9.07837C8.73846 9.07543 8.71996 9.0664 8.70509 9.05244C8.69021 9.03847 8.67962 9.0202 8.67467 8.99993C8.6479 9.02949 8.61146 9.04736 8.57265 9.04995C8.52301 9.04715 8.47402 9.03681 8.42721 9.01925C8.38476 9.03926 8.33913 9.05083 8.29264 9.05336C8.27574 9.05359 8.25916 9.04851 8.24504 9.03879C8.23092 9.02906 8.2199 9.01513 8.21341 8.99879C8.19841 9.01628 8.18021 9.03042 8.15989 9.04039C8.13956 9.05035 8.11753 9.05592 8.09511 9.05677C8.07771 9.05813 8.06024 9.05547 8.04392 9.04899C8.02761 9.0425 8.01285 9.03236 8.00068 9.01925C7.9959 9.01227 7.99273 9.00422 7.99141 8.99574C7.9901 8.98726 7.99067 8.97858 7.99309 8.97036C8.00285 8.93739 8.02565 8.92034 8.05821 8.89646C8.0734 8.88396 8.09185 8.87031 8.11247 8.85098C8.17433 8.79414 8.24271 8.73729 8.24271 8.73729C8.32737 8.74411 8.40117 8.74866 8.47171 8.74866C8.67667 8.7541 8.87966 8.70563 9.06213 8.60768H9.2043C9.2043 8.57812 9.2043 8.55765 9.22818 8.55083C9.24943 8.54176 9.26739 8.52587 9.27948 8.50545C9.29156 8.48502 9.29716 8.4611 9.29547 8.43713C9.29438 8.4254 9.29747 8.41365 9.30415 8.40416C9.3085 8.3999 9.31363 8.3966 9.31922 8.39445C9.32481 8.3923 9.33076 8.39135 9.33671 8.39166C9.54182 8.42067 9.74839 8.437 9.95534 8.44055C10.2267 8.45191 10.2451 8.45533 10.2473 8.47465C10.2497 8.49985 10.2472 8.5253 10.2397 8.54938C10.2322 8.57346 10.22 8.59564 10.2039 8.6145C10.1346 8.67436 10.0459 8.70371 9.95643 8.69636C9.92823 8.69811 9.89997 8.69811 9.87177 8.69636C9.88113 8.72127 9.8818 8.74884 9.87366 8.77421C9.86552 8.79958 9.84909 8.82113 9.82727 8.83507C9.7484 8.85575 9.6655 8.8522 9.5885 8.82484C9.5885 8.83279 9.5592 8.89987 9.50819 8.91807C9.48737 8.92119 9.46616 8.91988 9.44583 8.91422C9.4255 8.90855 9.40648 8.89865 9.38989 8.88509C9.36155 8.92845 9.31975 8.96019 9.27159 8.97491C9.22483 8.98371 9.17672 8.9802 9.13159 8.96468C9.10146 9.00307 9.05972 9.02954 9.01329 9.03972C8.99297 9.03977 8.97285 9.03546 8.95419 9.02705C8.93552 9.01864 8.9187 9.00632 8.90475 8.99083C8.86828 9.0357 8.81725 9.06486 8.76149 9.07269L8.75824 9.07837ZM8.6725 8.98173C8.68986 8.99197 8.70397 9.0545 8.75498 9.05564V9.06701V9.05677C8.80816 9.04399 8.85743 9.0174 8.89824 8.97946C8.91344 8.97946 8.94925 9.02494 8.99484 9.02494C9.04219 9.0121 9.08556 8.98664 9.12073 8.95104C9.15136 8.95886 9.1826 8.9638 9.21407 8.96582C9.22914 8.96587 9.24414 8.96357 9.25857 8.959C9.30437 8.93987 9.3458 8.91081 9.38012 8.87372C9.40895 8.89062 9.44066 8.90144 9.47346 8.90556C9.51678 8.89002 9.5526 8.85738 9.57331 8.8146C9.58959 8.8146 9.65688 8.83734 9.72851 8.83734C9.75653 8.83821 9.78437 8.83238 9.80991 8.82029C9.86743 8.79186 9.85224 8.69409 9.85224 8.69295C9.85224 8.69181 9.89999 8.68499 9.94883 8.68499C10.0324 8.69264 10.1157 8.66616 10.1811 8.61109C10.1954 8.59447 10.2062 8.57478 10.2126 8.55338C10.2189 8.53198 10.2208 8.50938 10.218 8.48716C10.2071 8.48716 10.0747 8.4792 9.94666 8.47465C9.74406 8.47064 9.54185 8.45431 9.34105 8.42577H9.31283C9.3155 8.45706 9.3085 8.48842 9.29287 8.51524C9.27724 8.54205 9.2538 8.5629 9.22601 8.57471C9.2119 8.57471 9.2119 8.5838 9.2119 8.59858C9.21156 8.60842 9.20934 8.61808 9.20539 8.62701H9.06213C8.80876 8.7567 8.52354 8.80194 8.24488 8.75662C8.24488 8.75662 8.18085 8.81005 8.12224 8.86463C8.10421 8.88083 8.08537 8.89601 8.0658 8.91011C8.03541 8.93398 8.01696 8.94763 8.00937 8.97378C8.00717 8.97836 8.00603 8.98342 8.00603 8.98856C8.00603 8.99369 8.00717 8.99875 8.00937 9.00334C8.03043 9.02227 8.05762 9.03204 8.08534 9.03062C8.12987 9.0241 8.17228 9.00656 8.20907 8.97946C8.22534 8.98742 8.23403 9.0238 8.27744 9.02721C8.32556 9.0236 8.37301 9.01327 8.41853 8.99651C8.46127 9.01251 8.50575 9.02282 8.55094 9.02721C8.59532 9.02306 8.63793 9.00701 8.67467 8.9806L8.6725 8.98173Z" fill="#F5C832"/>
<path d="M8.53336 8.13796C8.63356 8.10094 8.73621 8.07168 8.8405 8.05041C9.20951 7.97083 9.33758 7.99698 9.36363 7.97196C9.65666 7.63088 9.87047 7.60473 10.0832 7.51718C10.2525 7.36938 10.3068 7.15677 10.4869 6.93961C10.6671 6.72245 10.7713 6.70426 10.7713 6.70426L10.7952 6.75315C10.7952 6.75315 10.8907 6.67698 10.8863 6.74065C10.8787 6.83729 10.8028 6.92938 10.806 6.9976C10.806 7.0408 10.9373 6.97827 10.9254 7.01806C10.8961 7.11925 10.7919 7.18065 10.7626 7.22271C10.7181 7.28638 10.8798 7.20111 10.8473 7.26705C10.8147 7.333 10.6497 7.40008 10.5868 7.44328C10.5477 7.46943 10.6291 7.47512 10.6204 7.50468C10.6117 7.53424 10.4435 7.59904 10.4468 7.61837C10.45 7.6377 10.4924 7.65248 10.4717 7.67522C10.437 7.71615 10.297 7.72183 10.2948 7.74685C10.2927 7.77186 10.3241 7.79801 10.2948 7.84008C10.2471 7.90375 10.208 7.84008 10.1863 7.89238C10.1754 7.92194 10.2666 7.9822 10.2047 7.9947C10.1265 8.01293 10.0526 8.04775 9.98768 8.09703C9.91446 8.12237 9.83978 8.14287 9.76411 8.15842C9.71744 8.17093 9.45588 8.20504 9.46673 8.22664C9.47758 8.24824 9.64364 8.24597 9.99094 8.1823C10.1516 8.15445 10.3099 8.113 10.4641 8.05837C10.7322 7.96855 10.3947 7.96287 10.45 7.92421C10.5054 7.88556 10.7387 7.90488 10.7474 7.85031C10.7561 7.79574 10.6128 7.80824 10.6128 7.77641C10.6128 7.74457 10.8961 7.74457 10.9124 7.66271C10.9221 7.61837 10.7517 7.64907 10.793 7.59677C10.8342 7.54447 11.0578 7.53083 11.0654 7.42964C11.0654 7.36938 10.8831 7.44214 10.9069 7.39439C10.9167 7.37393 10.9927 7.35233 11.0676 7.29661C11.1848 7.21134 11.3715 7.06922 11.3606 6.97827C11.3487 6.87367 10.9732 7.22044 11.0057 7.09196C11.0177 7.04421 11.6178 6.54623 11.5191 6.42571C11.4529 6.34385 11.0242 6.88049 11.0101 6.7668C11.0101 6.73269 11.6786 5.93682 11.5527 5.68669C11.5212 5.62075 11.0155 6.63718 10.9438 6.54964C10.9243 6.52463 11.378 5.54685 11.3042 5.44793C11.2694 5.40018 11.1956 5.56163 11.1218 5.74354C11.048 5.92545 10.9601 6.12214 10.9428 6.14716C10.9254 6.17217 10.9623 5.76401 10.9428 5.63894C10.9363 5.58664 10.8798 5.60938 10.8798 5.60938C10.8093 6.88618 9.63604 7.83326 8.70918 7.97196C8.46715 8.00835 8.38901 8.12773 8.12528 8.28463C8.03628 8.33693 7.89953 8.36194 7.78123 8.43129C7.6838 8.48989 7.60089 8.57168 7.53921 8.67005C7.53328 8.69365 7.53316 8.71843 7.53885 8.74209C7.54454 8.76575 7.55587 8.78752 7.57177 8.80535C7.59781 8.81672 7.59564 8.73713 7.62277 8.72235C7.64991 8.70757 7.65099 8.75077 7.68355 8.74964C7.70939 8.74453 7.73363 8.73282 7.7541 8.71553C7.7541 8.71553 8.40529 8.71553 8.69181 8.7053C8.75364 8.70473 8.81356 8.68275 8.86221 8.64277C8.85136 8.60979 8.77538 8.62798 8.72763 8.63026C8.52902 8.61548 8.26962 8.63026 8.08404 8.61661C8.08004 8.61664 8.07608 8.61578 8.07243 8.61409C8.06877 8.61239 8.0655 8.6099 8.06284 8.60679C8.06017 8.60367 8.05816 8.6 8.05695 8.59601C8.05574 8.59202 8.05536 8.5878 8.05582 8.58364C8.09231 8.53224 8.13182 8.48325 8.17412 8.43698H8.08078C8.05473 8.45352 8.0266 8.46615 7.99721 8.4745C7.97008 8.4745 7.95922 8.45858 7.97008 8.44948C8.15049 8.33168 8.33873 8.22757 8.53336 8.13796Z" fill="#F5C832"/>
<path d="M7.57423 8.81701C7.55469 8.80792 7.54167 8.77381 7.53733 8.75903C7.52597 8.72909 7.52597 8.69574 7.53733 8.6658C7.60023 8.56599 7.68461 8.48304 7.78369 8.42363C7.84619 8.38932 7.91159 8.36115 7.97905 8.33949C8.02643 8.3214 8.07249 8.29974 8.11689 8.27469C8.20046 8.22466 8.26666 8.17805 8.32418 8.13712C8.43408 8.04579 8.56449 7.98551 8.70296 7.96203C9.6906 7.81422 10.7987 6.83417 10.8736 5.61195C10.8802 5.60542 10.8883 5.6009 10.8972 5.59887C10.9061 5.59683 10.9153 5.59736 10.9239 5.6004C10.9325 5.60344 10.9401 5.60887 10.946 5.61611C10.9518 5.62336 10.9557 5.63214 10.9572 5.64151C10.9648 5.75507 10.9648 5.86904 10.9572 5.9826C10.9543 6.03827 10.9543 6.09406 10.9572 6.14973C10.9971 6.03348 11.0431 5.91961 11.095 5.80864L11.12 5.75179C11.21 5.54146 11.2567 5.44141 11.298 5.44141L11.3153 5.45505C11.362 5.51872 11.2274 5.86776 11.0614 6.28275C11.0196 6.37231 10.9833 6.46459 10.9528 6.55903C11.0027 6.55903 11.1797 6.2566 11.3088 6.03717C11.4597 5.78249 11.5194 5.68585 11.5465 5.68585C11.655 5.89164 11.2838 6.40554 11.1048 6.65226C11.0729 6.69312 11.0436 6.73603 11.0169 6.78073C11.0909 6.73881 11.1586 6.68554 11.2176 6.6227C11.3262 6.52037 11.4347 6.41464 11.4955 6.41464L11.5194 6.42714C11.5888 6.51355 11.3663 6.74435 11.1308 6.97402C11.0909 7.01138 11.0535 7.05165 11.019 7.09453C11.0462 7.11159 11.1069 7.07407 11.1655 7.03769C11.2741 6.97061 11.3685 6.92399 11.375 6.98084C11.3815 7.03769 11.2828 7.16048 11.0776 7.31055C11.0429 7.33434 11.0066 7.35561 10.9691 7.37422C10.9516 7.38041 10.9354 7.39006 10.9213 7.40265C10.939 7.40447 10.9568 7.40447 10.9745 7.40265C11.0179 7.40265 11.0592 7.40265 11.0733 7.41288L11.0809 7.43676C11.0809 7.50611 10.9865 7.53453 10.9083 7.56068C10.8713 7.56832 10.8364 7.58465 10.8063 7.60843C10.8063 7.62208 10.8367 7.62549 10.8541 7.62776C10.8714 7.63004 10.9127 7.63458 10.9235 7.6505C10.9159 7.72327 10.815 7.74146 10.7195 7.75738C10.6879 7.76045 10.6568 7.7681 10.6272 7.78011C10.6409 7.78546 10.6551 7.78927 10.6696 7.79148C10.7075 7.79944 10.7607 7.80967 10.7531 7.85743C10.7455 7.90518 10.6739 7.90291 10.5882 7.912C10.5415 7.91223 10.4952 7.92108 10.4514 7.93815C10.466 7.94387 10.4808 7.9488 10.4959 7.95293C10.5361 7.96544 10.5751 7.97681 10.5751 8.00296C10.5751 8.02911 10.5621 8.04048 10.4666 8.07345C10.3124 8.12862 10.1541 8.17045 9.9934 8.19851C9.8431 8.22986 9.69069 8.24887 9.53757 8.25536C9.47571 8.25536 9.46268 8.24626 9.45834 8.23717C9.46594 8.20875 9.50935 8.19738 9.6754 8.16895L9.76549 8.15303C9.78828 8.14621 9.8165 8.13939 9.84471 8.13371C9.89291 8.12439 9.94015 8.1103 9.98581 8.09164C10.0533 8.04191 10.1297 8.00709 10.2105 7.98931C10.2257 7.97794 10.2105 7.95975 10.2105 7.94952C10.2105 7.93929 10.1822 7.91086 10.1888 7.89267C10.191 7.88377 10.1961 7.87596 10.2032 7.87057C10.2104 7.86518 10.2191 7.86254 10.2278 7.86311L10.2517 7.87562V7.86425C10.261 7.86409 10.2702 7.86152 10.2783 7.85676C10.2865 7.852 10.2934 7.8452 10.2984 7.83696C10.3039 7.82902 10.3068 7.81947 10.3068 7.80968C10.3068 7.79988 10.3039 7.79033 10.2984 7.78239C10.2963 7.77189 10.2963 7.76105 10.2984 7.75055C10.2984 7.73123 10.3277 7.7244 10.3733 7.71303C10.412 7.70937 10.4493 7.6957 10.4818 7.67324C10.4677 7.65391 10.4557 7.64368 10.4536 7.62549C10.4514 7.6073 10.4731 7.59593 10.5393 7.56068C10.5714 7.54623 10.6014 7.52709 10.6283 7.50384C10.6283 7.50384 10.6175 7.49133 10.6088 7.48678C10.6001 7.48223 10.5838 7.472 10.5827 7.45949V7.45267L10.5979 7.43676C10.6175 7.42425 10.6446 7.40833 10.6761 7.39241C10.7443 7.36434 10.8055 7.32041 10.8551 7.26394C10.8498 7.26025 10.8437 7.25775 10.8374 7.25658C10.831 7.25541 10.8245 7.25559 10.8182 7.25712C10.8074 7.25801 10.7965 7.25801 10.7857 7.25712L10.764 7.24575C10.764 7.23552 10.764 7.22415 10.7716 7.21505C10.7855 7.19747 10.8011 7.18147 10.8182 7.1673C10.8691 7.12743 10.9088 7.07404 10.9333 7.01267H10.8942C10.8443 7.02177 10.8139 7.01267 10.8128 6.99107C10.8167 6.94858 10.8293 6.90746 10.8497 6.87055C10.8717 6.8281 10.8864 6.78191 10.8931 6.73412C10.8703 6.72048 10.8367 6.74094 10.8193 6.75572L10.7803 6.70342C10.6766 6.76258 10.5855 6.84301 10.5122 6.93991C10.4425 7.0276 10.3804 7.12157 10.3266 7.22073C10.2706 7.33233 10.1972 7.43338 10.1095 7.51975C10.0694 7.53681 10.0314 7.55045 9.9934 7.56409C9.75872 7.63517 9.54947 7.77762 9.39214 7.9734C9.37803 7.98704 9.35306 7.98818 9.2988 7.99159C9.15283 8.00138 9.00774 8.02228 8.86467 8.05412C8.76088 8.07441 8.65887 8.10369 8.5597 8.14166C8.3579 8.23226 8.16274 8.33828 7.9758 8.45887C8.01104 8.4578 8.04543 8.44723 8.07565 8.42818H8.17441C8.12883 8.50663 8.06588 8.57598 8.06588 8.58735L8.08433 8.61805V8.60668C8.26992 8.61805 8.53039 8.60668 8.72901 8.61918H8.76265C8.80281 8.61918 8.85816 8.59872 8.87118 8.64192C8.82274 8.69082 8.75829 8.71848 8.69102 8.71924C8.41318 8.72719 7.76959 8.72833 7.75222 8.72833C7.73314 8.74719 7.7088 8.75914 7.68276 8.76244C7.67512 8.7625 7.66757 8.7608 7.66063 8.75746C7.65369 8.75412 7.64754 8.74922 7.6426 8.74311C7.61981 8.74311 7.61113 8.76017 7.6057 8.77608C7.60028 8.792 7.59268 8.81929 7.57531 8.81929L7.57423 8.81701ZM10.9127 5.6165C10.9055 5.61566 10.8982 5.61566 10.891 5.6165C10.8226 6.83986 9.70579 7.82787 8.71056 7.97681C8.57506 7.9994 8.4475 8.05857 8.34046 8.14849C8.28186 8.18942 8.21674 8.23717 8.131 8.28719C8.08212 8.3131 8.0313 8.33478 7.97905 8.352C7.91228 8.37267 7.84758 8.40009 7.78587 8.43386C7.69051 8.49226 7.6092 8.57277 7.54818 8.66921C7.54007 8.6935 7.54007 8.71996 7.54818 8.74425C7.55686 8.76926 7.56663 8.78632 7.57314 8.78859C7.5788 8.78012 7.58252 8.77039 7.584 8.76017C7.58746 8.73844 7.59872 8.71891 7.61547 8.70559C7.64369 8.70559 7.65129 8.70559 7.6578 8.7181C7.66431 8.73061 7.66974 8.73174 7.67842 8.73174C7.70246 8.72746 7.72496 8.71646 7.74354 8.69991C7.75113 8.69991 8.40775 8.69991 8.68885 8.6874C8.74783 8.68691 8.80503 8.66614 8.85165 8.62828C8.85165 8.62828 8.83428 8.62828 8.81258 8.62828H8.76157H8.72575C8.52497 8.61236 8.26558 8.62828 8.07456 8.61464C8.06344 8.61345 8.05307 8.60822 8.04526 8.59986C8.04191 8.59561 8.03942 8.59071 8.03793 8.58543C8.03644 8.58016 8.03598 8.57462 8.03657 8.56916C8.07105 8.5134 8.11187 8.46224 8.15813 8.41681L8.07239 8.435C8.04747 8.45274 8.01943 8.46511 7.98991 8.47138C7.96711 8.47138 7.95192 8.46456 7.94758 8.45205V8.44409L7.95735 8.42818C8.13823 8.3092 8.32723 8.20432 8.5228 8.11438C8.6236 8.07691 8.72701 8.04764 8.83211 8.02683C8.97493 7.99329 9.12012 7.972 9.26624 7.96316C9.29315 7.96398 9.31998 7.95974 9.34547 7.95066C9.51026 7.75533 9.7267 7.61565 9.96736 7.54931C10.0053 7.53567 10.0422 7.52203 10.0759 7.50611C10.1638 7.42304 10.2373 7.32454 10.293 7.21505C10.3473 7.11494 10.4101 7.02019 10.4807 6.93195C10.6609 6.71365 10.7672 6.69319 10.7716 6.69319L10.8052 6.74435C10.8052 6.73412 10.8443 6.70342 10.8714 6.70342L10.892 6.71252C10.8979 6.72067 10.9006 6.73081 10.8996 6.74094C10.8922 6.79154 10.8764 6.8404 10.853 6.88533C10.8334 6.91993 10.8219 6.95889 10.8193 6.99903C10.8379 7.00301 10.8571 7.00301 10.8758 6.99903C10.8881 6.99811 10.9004 6.99811 10.9127 6.99903L10.9365 7.00812C10.9173 7.08136 10.8753 7.14579 10.8172 7.19117C10.8014 7.20451 10.7869 7.21935 10.7737 7.23552C10.7737 7.24234 10.7889 7.2412 10.7998 7.23552C10.8113 7.23398 10.823 7.23398 10.8345 7.23552H10.841L10.8617 7.24688C10.8642 7.25155 10.8656 7.25684 10.8656 7.26223C10.8656 7.26762 10.8642 7.27292 10.8617 7.27758C10.8106 7.33919 10.7457 7.38648 10.6728 7.41515C10.6435 7.43107 10.6164 7.44585 10.5979 7.45836C10.6207 7.47882 10.6424 7.49133 10.637 7.51293C10.6316 7.53453 10.6012 7.54931 10.5361 7.58342C10.5099 7.59564 10.4852 7.61089 10.4623 7.6289C10.4623 7.63572 10.4709 7.64141 10.4785 7.64709L10.4937 7.67097C10.4629 7.70934 10.4188 7.73343 10.3711 7.73805C10.3501 7.74165 10.3297 7.74815 10.3103 7.75738C10.3223 7.79603 10.3309 7.82218 10.3103 7.85515C10.3034 7.86598 10.294 7.87486 10.283 7.881C10.2721 7.88715 10.2598 7.89037 10.2474 7.8904H10.2235C10.2159 7.8904 10.2094 7.8904 10.204 7.90632C10.1985 7.92223 10.2148 7.93019 10.2224 7.94156C10.23 7.95293 10.2495 7.98022 10.243 7.99614C10.2365 8.01205 10.23 8.01205 10.2148 8.01546C10.1366 8.03338 10.0628 8.06781 9.99774 8.11665C9.94973 8.13635 9.8999 8.15083 9.84905 8.15986L9.77091 8.17918C9.75572 8.17918 9.7199 8.18942 9.67866 8.19738C9.61463 8.20602 9.55119 8.21893 9.48873 8.23603C9.51152 8.23603 9.58098 8.2565 9.99232 8.1826C10.1526 8.15445 10.3104 8.11301 10.4644 8.05867C10.561 8.0257 10.5621 8.00978 10.5621 8.00864C10.5621 8.0075 10.5154 7.98477 10.4981 7.98022C10.459 7.96771 10.4395 7.96089 10.4373 7.94611V7.93929L10.4482 7.92564C10.4952 7.90625 10.5452 7.89623 10.5958 7.89608C10.6522 7.88926 10.7379 7.8813 10.7412 7.85856C10.7444 7.83583 10.7151 7.82673 10.6739 7.81877C10.6327 7.81081 10.6131 7.80626 10.6153 7.78011C10.6175 7.75396 10.6489 7.75396 10.7238 7.74146C10.7987 7.72895 10.9062 7.70962 10.9148 7.67097C10.9148 7.66187 10.879 7.65732 10.8595 7.65505C10.84 7.65278 10.7965 7.64823 10.79 7.6289L10.7987 7.60502C10.8301 7.57779 10.8673 7.55905 10.9072 7.55045C10.9789 7.52544 11.0614 7.49929 11.0646 7.44471C11.0581 7.4288 11.0223 7.42993 10.9821 7.43448C10.942 7.43903 10.9181 7.44585 10.9072 7.42652C10.9148 7.39128 10.9333 7.38104 10.9658 7.36513C11.0034 7.34744 11.0397 7.32692 11.0744 7.30373C11.3349 7.11272 11.3674 7.02859 11.3631 6.99448C11.2981 7.00028 11.2362 7.02598 11.1851 7.06838C11.1386 7.10299 11.0869 7.12913 11.0321 7.1457L11.0103 7.13546C11.0078 7.12998 11.0064 7.12395 11.0064 7.11784C11.0064 7.11173 11.0078 7.1057 11.0103 7.10022C11.0103 7.08544 11.0462 7.05247 11.1395 6.96037C11.2969 6.80802 11.5888 6.52151 11.5259 6.4442C11.4683 6.4442 11.3468 6.55221 11.2502 6.64316C11.1536 6.73412 11.0733 6.80802 11.0331 6.80802H11.0245L11.0093 6.78415C11.0093 6.77278 11.0212 6.75231 11.1015 6.64203C11.2784 6.39872 11.6442 5.89278 11.5552 5.70859C11.4759 5.81728 11.4034 5.93121 11.3381 6.04968C11.1493 6.36916 11.0212 6.57836 10.9648 6.57836C10.9355 6.55789 10.9431 6.53515 11.0483 6.27365C11.1569 5.9951 11.3479 5.52781 11.3045 5.46756C11.2697 5.46756 11.1959 5.63583 11.1395 5.76089L11.1156 5.81774C11.044 5.98487 10.9767 6.14404 10.9604 6.16678C10.9344 6.15996 10.9344 6.13722 10.9409 5.98714C10.9478 5.87622 10.9478 5.76494 10.9409 5.65402C10.9408 5.65037 10.9399 5.64679 10.9384 5.64351C10.9369 5.64023 10.9347 5.63732 10.9321 5.63497C10.9294 5.63261 10.9263 5.63086 10.923 5.62984C10.9196 5.62881 10.9161 5.62853 10.9127 5.629V5.6165Z" fill="#F5C832"/>
<path d="M7.8811 8.55442C7.8811 8.53964 7.84962 8.55442 7.82683 8.55442C7.80404 8.55442 7.79102 8.57261 7.79102 8.58626C7.79102 8.5999 7.8214 8.59421 7.8442 8.58626C7.86699 8.5783 7.88218 8.56806 7.8811 8.55215V8.55442Z" fill="#4EAEC4"/>
<path d="M7.80632 8.60654H7.79655L7.78027 8.58721C7.78027 8.56675 7.79547 8.54969 7.82369 8.54287C7.83826 8.53882 7.85315 8.53616 7.86818 8.53491H7.87795L7.89206 8.55424C7.89206 8.57471 7.87578 8.59176 7.84648 8.59858C7.83347 8.60302 7.81998 8.60569 7.80632 8.60654Z" fill="#4EAEC4"/>
<path d="M8.72346 3.5598C8.73794 3.56423 8.75318 3.56524 8.76808 3.56276C8.78298 3.56028 8.79717 3.55437 8.80963 3.54545C8.82208 3.53653 8.8325 3.52483 8.84012 3.51119C8.84774 3.49755 8.85238 3.48231 8.8537 3.46657C8.85763 3.2996 8.85183 3.13254 8.83633 2.96631C8.76092 3.11347 8.69423 3.26535 8.63663 3.42109C8.63204 3.43623 8.63072 3.45225 8.63278 3.468C8.63484 3.48374 8.64023 3.4988 8.64854 3.51208C8.65686 3.52537 8.6679 3.53655 8.68086 3.5448C8.69382 3.55306 8.70837 3.55818 8.72346 3.5598Z" fill="#F5C832"/>
<path d="M9.01316 3.65053C9.02648 3.65792 9.0412 3.66212 9.05625 3.66284C9.07131 3.66356 9.08633 3.66077 9.10024 3.65468C9.11414 3.6486 9.12659 3.63936 9.13668 3.62763C9.14677 3.6159 9.15425 3.60198 9.15859 3.58686C9.1927 3.42366 9.21771 3.25853 9.23348 3.09229C9.13232 3.22147 9.03881 3.35702 8.95347 3.49818C8.94599 3.51197 8.9416 3.52737 8.94063 3.54321C8.93967 3.55904 8.94216 3.5749 8.94791 3.58958C8.95366 3.60426 8.96252 3.61737 8.97383 3.62793C8.98513 3.63849 8.99859 3.64622 9.01316 3.65053Z" fill="#F5C832"/>
<path d="M9.2794 3.79713C9.2915 3.80613 9.30524 3.81244 9.31976 3.81566C9.33428 3.81888 9.34928 3.81895 9.36382 3.81586C9.37837 3.81277 9.39216 3.80659 9.40433 3.79769C9.4165 3.7888 9.42681 3.77739 9.4346 3.76415C9.49868 3.61078 9.55412 3.45362 9.60066 3.29346C9.47734 3.39964 9.36028 3.51354 9.2501 3.63454C9.24018 3.64658 9.23299 3.66081 9.22905 3.67616C9.22511 3.69152 9.22452 3.70761 9.22734 3.72323C9.23015 3.73886 9.2363 3.75362 9.24531 3.76641C9.25433 3.7792 9.26598 3.7897 9.2794 3.79713Z" fill="#F5C832"/>
<path d="M9.51371 4.00196C9.52387 4.01332 9.53614 4.02237 9.54976 4.02856C9.56339 4.03475 9.57809 4.03795 9.59294 4.03795C9.6078 4.03795 9.62249 4.03475 9.63612 4.02856C9.64975 4.02237 9.66202 4.01332 9.67217 4.00196C9.76316 3.86461 9.8465 3.72187 9.92179 3.57446C9.7811 3.65315 9.64518 3.74086 9.5148 3.8371C9.50301 3.84712 9.4935 3.85977 9.48697 3.87413C9.48044 3.88849 9.47705 3.90419 9.47705 3.9201C9.47705 3.936 9.48044 3.95171 9.48697 3.96606C9.4935 3.98042 9.50301 3.99307 9.5148 4.00309L9.51371 4.00196Z" fill="#F5C832"/>
<path d="M9.70549 4.2519C9.71265 4.26571 9.72263 4.2777 9.73471 4.28701C9.7468 4.29632 9.76069 4.30272 9.77541 4.30576C9.79012 4.3088 9.8053 4.3084 9.81985 4.30459C9.83441 4.30079 9.84798 4.29367 9.85961 4.28374C9.97485 4.16805 10.0836 4.04543 10.1852 3.9165C10.0327 3.96482 9.883 4.02252 9.73696 4.08932C9.72337 4.09653 9.71152 4.10687 9.70228 4.11957C9.69305 4.13227 9.68668 4.14699 9.68365 4.16263C9.68063 4.17827 9.68102 4.19443 9.6848 4.20989C9.68858 4.22535 9.69565 4.23972 9.70549 4.2519Z" fill="#F5C832"/>
<path d="M9.85351 4.52588C9.85883 4.54038 9.86693 4.55357 9.87731 4.56466C9.88769 4.57575 9.90013 4.58449 9.91385 4.59035C9.92758 4.59621 9.94231 4.59906 9.95713 4.59873C9.97195 4.5984 9.98655 4.59489 10 4.58842C10.1344 4.49803 10.2638 4.39971 10.3875 4.29395C10.2287 4.31029 10.071 4.33687 9.91537 4.37353C9.90084 4.37795 9.88744 4.3857 9.87612 4.39621C9.8648 4.40673 9.85586 4.41975 9.84994 4.43433C9.84402 4.44892 9.84126 4.4647 9.84188 4.48053C9.8425 4.49636 9.84647 4.51186 9.85351 4.52588Z" fill="#F5C832"/>
<path d="M9.9356 4.8297C9.93718 4.84538 9.94205 4.86049 9.94986 4.87396C9.95768 4.88743 9.96824 4.89892 9.98079 4.90762C9.99334 4.91631 10.0076 4.92199 10.0225 4.92424C10.0374 4.9265 10.0525 4.92527 10.0669 4.92066C10.2166 4.85841 10.3626 4.78704 10.5043 4.70691C10.3457 4.69023 10.1862 4.68378 10.0268 4.68758C10.0121 4.69 9.998 4.69555 9.98544 4.7039C9.97288 4.71225 9.96209 4.72322 9.95375 4.73612C9.9454 4.74902 9.93968 4.76358 9.93693 4.7789C9.93418 4.79421 9.93447 4.80996 9.93777 4.82515L9.9356 4.8297Z" fill="#F5C832"/>
<path d="M9.96174 5.14469C9.96059 5.15993 9.96262 5.17524 9.96767 5.18958C9.97272 5.20391 9.98067 5.21693 9.99099 5.22774C10.0013 5.23855 10.0137 5.24688 10.0274 5.25217C10.0411 5.25746 10.0557 5.25958 10.0703 5.25839C10.2271 5.23022 10.3822 5.19225 10.5348 5.14469C10.3822 5.09712 10.2271 5.05916 10.0703 5.03099C10.0558 5.02999 10.0412 5.03224 10.0276 5.0376C10.014 5.04296 10.0017 5.0513 9.99139 5.06206C9.98112 5.07283 9.97316 5.08577 9.96804 5.10002C9.96293 5.11427 9.96078 5.1295 9.96174 5.14469Z" fill="#F5C832"/>
<path d="M9.93582 5.45941C9.93251 5.4746 9.93223 5.49035 9.93497 5.50566C9.93772 5.52098 9.94345 5.53554 9.95179 5.54844C9.96014 5.56134 9.97093 5.57231 9.98349 5.58066C9.99605 5.58901 10.0101 5.59456 10.0248 5.59698C10.1842 5.60079 10.3437 5.59433 10.5024 5.57765C10.3616 5.49919 10.2167 5.42934 10.0682 5.36845C10.0538 5.36384 10.0387 5.36261 10.0238 5.36487C10.0089 5.36712 9.99464 5.3728 9.98209 5.38149C9.96954 5.39019 9.95898 5.40168 9.95117 5.41515C9.94335 5.42862 9.93848 5.44373 9.9369 5.45941H9.93582Z" fill="#F5C832"/>
<path d="M9.85351 5.76314C9.84647 5.77717 9.8425 5.79266 9.84188 5.80849C9.84126 5.82433 9.84402 5.84011 9.84994 5.85469C9.85586 5.86927 9.8648 5.88229 9.87612 5.89281C9.88744 5.90332 9.90084 5.91107 9.91537 5.91549C10.071 5.95215 10.2287 5.97873 10.3875 5.99508C10.2638 5.88931 10.1344 5.791 10 5.70061C9.98673 5.69299 9.97199 5.68857 9.95686 5.68767C9.94174 5.68677 9.92661 5.68941 9.91258 5.6954C9.89855 5.70139 9.88597 5.71057 9.87575 5.72229C9.86553 5.73401 9.85794 5.74796 9.85351 5.76314Z" fill="#F5C832"/>
<path d="M9.70583 6.04282C9.6962 6.055 9.6893 6.06928 9.68564 6.08462C9.68197 6.09995 9.68164 6.11595 9.68466 6.13144C9.68768 6.14693 9.69398 6.16152 9.70309 6.17412C9.7122 6.18673 9.72389 6.19703 9.7373 6.20427C9.88337 6.27165 10.033 6.33011 10.1855 6.37936C10.0842 6.24977 9.97551 6.12675 9.85995 6.01099C9.8484 6.00086 9.83483 5.99357 9.82024 5.98965C9.80565 5.98572 9.7904 5.98527 9.77563 5.98833C9.76085 5.99138 9.74691 5.99786 9.73483 6.00729C9.72275 6.01672 9.71285 6.02886 9.70583 6.04282Z" fill="#F5C832"/>
<path d="M9.51379 6.28832C9.50202 6.29823 9.49252 6.31078 9.48599 6.32505C9.47946 6.33931 9.47607 6.35493 9.47607 6.37075C9.47607 6.38657 9.47946 6.40219 9.48599 6.41646C9.49252 6.43072 9.50202 6.44327 9.51379 6.45318C9.64443 6.549 9.78033 6.6367 9.92079 6.71582C9.8455 6.56841 9.76215 6.42567 9.67116 6.28832C9.6616 6.27597 9.64952 6.26601 9.63581 6.25917C9.62211 6.25233 9.60712 6.24878 9.59193 6.24878C9.57675 6.24878 9.56176 6.25233 9.54805 6.25917C9.53435 6.26601 9.52227 6.27597 9.51271 6.28832H9.51379Z" fill="#F5C832"/>
<path d="M9.27928 6.48838C9.26601 6.49595 9.25451 6.50652 9.24561 6.51932C9.23672 6.53213 9.23065 6.54684 9.22785 6.56239C9.22504 6.57795 9.22557 6.59397 9.2294 6.60929C9.23323 6.6246 9.24026 6.63884 9.24998 6.65096C9.36015 6.77196 9.47722 6.88587 9.60053 6.99205C9.55384 6.83343 9.49839 6.67778 9.43448 6.5259C9.42668 6.51267 9.41638 6.50125 9.40421 6.49236C9.39203 6.48347 9.37824 6.47728 9.3637 6.47419C9.34915 6.4711 9.33416 6.47117 9.31964 6.47439C9.30512 6.47761 9.29138 6.48392 9.27928 6.49293V6.48838Z" fill="#F5C832"/>
<path d="M9.01312 6.63962C8.99867 6.64412 8.98536 6.65195 8.97417 6.66254C8.96298 6.67313 8.9542 6.68622 8.94848 6.70083C8.94275 6.71545 8.94022 6.73122 8.94108 6.74699C8.94194 6.76276 8.94616 6.77813 8.95343 6.79197C9.03877 6.93313 9.13228 7.06868 9.23344 7.19786C9.21775 7.03161 9.19274 6.86647 9.15855 6.70329C9.15421 6.68817 9.14673 6.67424 9.13664 6.66252C9.12655 6.65079 9.1141 6.64155 9.1002 6.63546C9.08629 6.62937 9.07127 6.62659 9.05621 6.62731C9.04116 6.62803 9.02644 6.63223 9.01312 6.63962Z" fill="#F5C832"/>
<path d="M7.56545 6.48829C7.55335 6.47928 7.53961 6.47298 7.52509 6.46975C7.51057 6.46653 7.49558 6.46646 7.48103 6.46955C7.46648 6.47264 7.4527 6.47883 7.44052 6.48772C7.42835 6.49661 7.41804 6.50803 7.41025 6.52126C7.34765 6.67473 7.29365 6.83189 7.24854 6.99196C7.37185 6.88578 7.48892 6.77187 7.59909 6.65087C7.60881 6.63875 7.61584 6.62451 7.61967 6.6092C7.6235 6.59388 7.62403 6.57786 7.62122 6.5623C7.61842 6.54675 7.61235 6.53203 7.60346 6.51923C7.59456 6.50643 7.58306 6.49586 7.56979 6.48829H7.56545Z" fill="#F5C832"/>
<path d="M7.33093 6.28836C7.32136 6.27621 7.30934 6.26643 7.29574 6.25971C7.28214 6.25299 7.26728 6.24951 7.25225 6.24951C7.23721 6.24951 7.22235 6.25299 7.20875 6.25971C7.19515 6.26643 7.18313 6.27621 7.17356 6.28836C7.08189 6.42547 6.99817 6.56822 6.92285 6.71585C7.06331 6.63674 7.19921 6.54904 7.32985 6.45322C7.34162 6.44331 7.35112 6.43076 7.35765 6.41649C7.36417 6.40223 7.36756 6.38661 7.36756 6.37079C7.36756 6.35497 7.36417 6.33935 7.35765 6.32508C7.35112 6.31082 7.34162 6.29827 7.32985 6.28836H7.33093Z" fill="#F5C832"/>
<path d="M7.13998 6.04285C7.13284 6.02886 7.12282 6.01671 7.11065 6.00727C7.09848 5.99784 7.08445 5.99137 7.06959 5.98832C7.05473 5.98527 7.03941 5.98573 7.02474 5.98965C7.01007 5.99358 6.99642 6.00087 6.98478 6.01101C6.86915 6.12671 6.76041 6.24973 6.65918 6.37939C6.81169 6.33013 6.96135 6.27167 7.10742 6.2043C7.12091 6.19716 7.13271 6.18693 7.14193 6.17438C7.15115 6.16182 7.15756 6.14726 7.16069 6.13176C7.16381 6.11626 7.16357 6.10022 7.15999 6.08483C7.1564 6.06945 7.14957 6.0551 7.13998 6.04285Z" fill="#F5C832"/>
<path d="M6.99687 5.76306C6.99154 5.74856 6.98344 5.73537 6.97307 5.72428C6.96269 5.71319 6.95025 5.70445 6.93652 5.69859C6.92279 5.69273 6.90806 5.68988 6.89324 5.69021C6.87842 5.69054 6.86382 5.69406 6.85035 5.70053C6.71579 5.79063 6.58642 5.88896 6.46289 5.995C6.62202 5.97858 6.78005 5.952 6.93609 5.91541C6.95052 5.91086 6.96381 5.90302 6.97501 5.89245C6.9862 5.88188 6.99502 5.86884 7.00083 5.85428C7.00665 5.83971 7.0093 5.82397 7.00862 5.8082C7.00793 5.79243 7.00392 5.77701 6.99687 5.76306Z" fill="#F5C832"/>
<path d="M6.90871 5.45941C6.90713 5.44373 6.90226 5.42862 6.89445 5.41515C6.88663 5.40168 6.87607 5.39019 6.86352 5.38149C6.85097 5.3728 6.83674 5.36712 6.82185 5.36487C6.80696 5.36261 6.79178 5.36384 6.77739 5.36845C6.62894 5.42934 6.48399 5.49919 6.34326 5.57765C6.50227 5.59438 6.66212 5.60084 6.82189 5.59698C6.83694 5.59548 6.85149 5.59049 6.86448 5.58237C6.87747 5.57425 6.88858 5.56321 6.89699 5.55004C6.90541 5.53687 6.91092 5.52191 6.91314 5.50623C6.91535 5.49056 6.91421 5.47456 6.9098 5.45941H6.90871Z" fill="#F5C832"/>
<path d="M6.87833 5.14469C6.87929 5.1295 6.87714 5.11427 6.87203 5.10002C6.86691 5.08577 6.85895 5.07283 6.84867 5.06206C6.8384 5.0513 6.82604 5.04296 6.81244 5.0376C6.79884 5.03224 6.7843 5.02999 6.7698 5.03099C6.61258 5.05917 6.45711 5.09714 6.3042 5.14469C6.45711 5.19224 6.61258 5.23021 6.7698 5.25839C6.78434 5.25958 6.79896 5.25746 6.81265 5.25217C6.82633 5.24688 6.83876 5.23855 6.84908 5.22774C6.85939 5.21693 6.86735 5.20391 6.8724 5.18958C6.87745 5.17524 6.87947 5.15993 6.87833 5.14469Z" fill="#F5C832"/>
<path d="M6.90882 4.82957C6.91213 4.81446 6.91246 4.7988 6.90977 4.78355C6.90709 4.7683 6.90146 4.75378 6.89323 4.7409C6.88499 4.72801 6.87433 4.71703 6.86189 4.70862C6.84946 4.70021 6.83551 4.69455 6.82091 4.692C6.66114 4.68814 6.5013 4.6946 6.34229 4.71133C6.48301 4.78979 6.62797 4.85964 6.77641 4.92053C6.7908 4.92536 6.80604 4.92675 6.82101 4.92459C6.83598 4.92243 6.85029 4.91677 6.8629 4.90804C6.8755 4.89931 6.88607 4.88773 6.89383 4.87415C6.90159 4.86057 6.90635 4.84533 6.90774 4.82957H6.90882Z" fill="#F5C832"/>
<path d="M6.99687 4.52588C7.00392 4.51193 7.00793 4.49651 7.00862 4.48074C7.0093 4.46497 7.00665 4.44923 7.00083 4.43467C6.99502 4.4201 6.9862 4.40706 6.97501 4.39649C6.96381 4.38592 6.95052 4.37808 6.93609 4.37353C6.78005 4.33694 6.62202 4.31036 6.46289 4.29395C6.5863 4.40154 6.71568 4.50139 6.85035 4.59296C6.86364 4.60058 6.87838 4.605 6.89351 4.6059C6.90864 4.6068 6.92376 4.60416 6.93779 4.59817C6.95182 4.59218 6.9644 4.583 6.97462 4.57128C6.98484 4.55956 6.99244 4.54561 6.99687 4.53043V4.52588Z" fill="#F5C832"/>
<path d="M7.13998 4.25222C7.14857 4.23954 7.15459 4.22515 7.15767 4.20994C7.16074 4.19473 7.16081 4.17902 7.15786 4.16378C7.15491 4.14855 7.14901 4.1341 7.14052 4.12135C7.13203 4.1086 7.12113 4.0978 7.1085 4.08963C6.96223 4.02086 6.8122 3.96126 6.65918 3.91113C6.76074 4.04013 6.86946 4.16275 6.98478 4.27837C6.99606 4.28874 7.0094 4.29637 7.02383 4.30072C7.03826 4.30508 7.05342 4.30604 7.06825 4.30354C7.08307 4.30104 7.09719 4.29515 7.10959 4.28627C7.12198 4.2774 7.13236 4.26577 7.13998 4.25222Z" fill="#F5C832"/>
<path d="M7.33093 4.00187C7.34272 3.99185 7.35223 3.97919 7.35876 3.96484C7.36529 3.95048 7.36868 3.93477 7.36868 3.91887C7.36868 3.90296 7.36529 3.88726 7.35876 3.8729C7.35223 3.85854 7.34272 3.84589 7.33093 3.83587C7.20029 3.73843 7.064 3.64958 6.92285 3.56982C6.99817 3.71746 7.08189 3.86021 7.17356 3.99732C7.18313 4.00947 7.19515 4.01925 7.20875 4.02597C7.22235 4.03268 7.23721 4.03617 7.25225 4.03617C7.26728 4.03617 7.28214 4.03268 7.29574 4.02597C7.30934 4.01925 7.32136 4.00947 7.33093 3.99732V4.00187Z" fill="#F5C832"/>
<path d="M8.42083 3.72339C8.68963 3.72339 8.95238 3.8069 9.17586 3.96336C9.39934 4.11983 9.5735 4.34221 9.67632 4.60238C9.77913 4.86255 9.80598 5.14882 9.75346 5.42497C9.70094 5.70113 9.57142 5.95476 9.38128 6.15379C9.19113 6.35282 8.94891 6.4883 8.68526 6.5431C8.4216 6.5979 8.14835 6.56955 7.90008 6.46163C7.65181 6.35372 7.43967 6.17109 7.29049 5.93686C7.14131 5.70262 7.0618 5.4273 7.06201 5.14571C7.0623 4.76839 7.20559 4.40661 7.46038 4.13991C7.71518 3.8732 8.06064 3.72339 8.42083 3.72339Z" fill="#F5C832"/>
<path d="M8.42281 3.52772C8.43731 3.52872 8.45185 3.52647 8.46545 3.52111C8.47905 3.51575 8.4914 3.50741 8.50168 3.49665C8.51196 3.48588 8.51992 3.47294 8.52503 3.45869C8.53015 3.44444 8.5323 3.42921 8.53134 3.41402C8.50436 3.24934 8.46812 3.08647 8.42281 2.92627C8.37741 3.08645 8.34117 3.24932 8.31428 3.41402C8.31313 3.42926 8.31516 3.44457 8.32021 3.45891C8.32526 3.47325 8.33321 3.48627 8.34353 3.49707C8.35384 3.50788 8.36627 3.51621 8.37996 3.5215C8.39365 3.52679 8.40826 3.52891 8.42281 3.52772Z" fill="#F5C832"/>
<path d="M8.72348 6.73074C8.70843 6.7322 8.69389 6.73718 8.68093 6.74531C8.66796 6.75344 8.65691 6.76451 8.64857 6.77772C8.64024 6.79092 8.63484 6.80592 8.63278 6.8216C8.63072 6.83728 8.63204 6.85324 8.63666 6.86832C8.69425 7.02406 8.76095 7.17594 8.83635 7.3231C8.85185 7.15687 8.85765 6.98981 8.85372 6.82284C8.85244 6.80711 8.84782 6.79188 8.84018 6.77827C8.83255 6.76465 8.82211 6.753 8.80962 6.74417C8.79713 6.73534 8.78291 6.72955 8.768 6.72723C8.7531 6.7249 8.73788 6.7261 8.72348 6.73074Z" fill="#F5C832"/>
<path d="M8.42272 6.76131C8.40822 6.76031 8.39368 6.76256 8.38008 6.76792C8.36647 6.77328 8.35412 6.78162 8.34385 6.79238C8.33357 6.80315 8.32561 6.81609 8.32049 6.83034C8.31538 6.84459 8.31323 6.85982 8.31419 6.87501C8.34096 7.03973 8.37721 7.20261 8.42272 7.36276C8.46816 7.20259 8.5044 7.03971 8.53125 6.87501C8.53239 6.85977 8.53037 6.84446 8.52532 6.83012C8.52027 6.81578 8.51231 6.80276 8.502 6.79196C8.49168 6.78115 8.47925 6.77281 8.46557 6.76752C8.45188 6.76223 8.43726 6.76011 8.42272 6.76131Z" fill="#F5C832"/>
<path d="M8.11703 6.73074C8.10263 6.7261 8.08741 6.7249 8.07251 6.72723C8.0576 6.72955 8.04338 6.73534 8.03089 6.74417C8.0184 6.753 8.00796 6.76465 8.00033 6.77827C7.99269 6.79188 7.98807 6.80711 7.98679 6.82284C7.98434 6.98952 7.99159 7.1562 8.0085 7.32196C8.08391 7.1748 8.1506 7.02292 8.2082 6.86718C8.21266 6.85183 8.21374 6.83561 8.21134 6.81976C8.20894 6.80391 8.20313 6.78884 8.19434 6.7757C8.18556 6.76255 8.17403 6.75167 8.16063 6.74388C8.14724 6.73609 8.13233 6.7316 8.11703 6.73074Z" fill="#F5C832"/>
<path d="M7.83116 6.63962C7.81784 6.63223 7.80312 6.62803 7.78807 6.62731C7.77301 6.62659 7.75799 6.62937 7.74409 6.63546C7.73018 6.64155 7.71773 6.65079 7.70764 6.66252C7.69755 6.67424 7.69007 6.68817 7.68573 6.70329C7.65154 6.86647 7.62653 7.03161 7.61084 7.19786C7.71206 7.06846 7.80592 6.93293 7.89194 6.79197C7.89899 6.77802 7.903 6.7626 7.90369 6.74683C7.90438 6.73106 7.90172 6.71532 7.89591 6.70075C7.89009 6.68619 7.88127 6.67315 7.87008 6.66258C7.85888 6.65201 7.84559 6.64417 7.83116 6.63962Z" fill="#F5C832"/>
<path d="M7.56539 3.79713C7.57867 3.78955 7.59017 3.77898 7.59906 3.76618C7.60796 3.75338 7.61402 3.73867 7.61683 3.72311C7.61963 3.70755 7.6191 3.69153 7.61528 3.67622C7.61145 3.6609 7.60442 3.64667 7.5947 3.63454C7.48452 3.51354 7.36746 3.39964 7.24414 3.29346C7.29068 3.45362 7.34612 3.61078 7.41019 3.76415C7.41723 3.77823 7.42717 3.79049 7.4393 3.80004C7.45143 3.80958 7.46544 3.81618 7.4803 3.81933C7.49517 3.82249 7.51052 3.82214 7.52524 3.8183C7.53996 3.81445 7.55368 3.80722 7.56539 3.79713Z" fill="#F5C832"/>
<path d="M7.83116 3.65053C7.84559 3.64598 7.85888 3.63814 7.87008 3.62757C7.88127 3.617 7.89009 3.60396 7.89591 3.58939C7.90172 3.57483 7.90438 3.55909 7.90369 3.54332C7.903 3.52755 7.89899 3.51213 7.89194 3.49818C7.80592 3.35722 7.71206 3.22169 7.61084 3.09229C7.62554 3.25846 7.64946 3.4236 7.68247 3.58686C7.68681 3.60198 7.6943 3.6159 7.70439 3.62763C7.71448 3.63936 7.72692 3.6486 7.74083 3.65468C7.75474 3.66077 7.76976 3.66356 7.78481 3.66284C7.79987 3.66212 7.81458 3.65792 7.8279 3.65053H7.83116Z" fill="#F5C832"/>
<path d="M8.11678 3.5598C8.13187 3.55818 8.14642 3.55306 8.15938 3.5448C8.17234 3.53655 8.18338 3.52537 8.1917 3.51208C8.20002 3.4988 8.2054 3.48374 8.20746 3.468C8.20952 3.45225 8.2082 3.43623 8.20361 3.42109C8.14601 3.26535 8.07932 3.11347 8.00391 2.96631C7.98841 3.13254 7.98261 3.2996 7.98654 3.46657C7.98786 3.48231 7.9925 3.49755 8.00012 3.51119C8.00774 3.52483 8.01816 3.53653 8.03061 3.54545C8.04307 3.55437 8.05726 3.56028 8.07216 3.56276C8.08706 3.56524 8.1023 3.56423 8.11678 3.5598Z" fill="#F5C832"/>
</g>
<defs>
<clipPath id="clip0_707_74578">
<rect width="16" height="12" fill="white" transform="translate(0 0.5)"/>
</clipPath>
</defs>
</svg>
