<svg width="24" height="24" viewBox="0 0 24 24" fill="none" xmlns="http://www.w3.org/2000/svg">
<path fill-rule="evenodd" clip-rule="evenodd" d="M0 2.39896C0 1.07241 1.07386 0 2.4 0H21.6C22.9261 0 24 1.07241 24 2.39896V16.7896C24 18.1161 22.9261 19.1885 21.6 19.1885H15.628L12.6655 23.6294C12.5171 23.8518 12.2674 23.9854 12 23.9854C11.7326 23.9854 11.4829 23.8518 11.3345 23.6294L8.37201 19.1885H2.4C1.07386 19.1885 0 18.1161 0 16.7896V2.39896ZM17.6 8H6.4V6.4H17.6V8ZM16 12.8H8V11.2H16V12.8Z" fill="#2AC1CE"/>
</svg>
