<svg width="63" height="30" viewBox="0 0 63 30" fill="none" xmlns="http://www.w3.org/2000/svg">
<path d="M62.535 26.8982L55.3483 14.7616L62.4617 3.11992C62.6306 2.8425 62.7227 2.52519 62.7287 2.20046C62.7347 1.87573 62.6544 1.55523 62.4958 1.27176C62.3373 0.988284 62.1063 0.752012 61.8265 0.587111C61.5467 0.422211 61.2281 0.334603 60.9033 0.333252H3.66667C2.69421 0.333252 1.76158 0.719561 1.07394 1.40719C0.386308 2.09483 0 3.02746 0 3.99992L0 25.9999C0 26.9724 0.386308 27.905 1.07394 28.5926C1.76158 29.2803 2.69421 29.6666 3.66667 29.6666H60.9583C61.2819 29.6665 61.5997 29.5808 61.8795 29.4182C62.1592 29.2555 62.3909 29.0217 62.5511 28.7406C62.7112 28.4594 62.7941 28.1408 62.7913 27.8172C62.7884 27.4937 62.7 27.1766 62.535 26.8982ZM19.2683 20.8299H17.215L11.2383 12.8733V20.8483H9.16667V9.49992H11.2383L17.2333 17.4749V9.49992H19.2867L19.2683 20.8299ZM30.8733 11.3333H24.4017V14.0649H30.2683V15.8982H24.4017V18.8499H30.8733V20.6833H22.33V9.49992H30.855L30.8733 11.3333ZM46.0717 20.7932H44L41.1583 12.3783L38.3167 20.8299H36.2633L32.5967 9.49992H34.8333L37.2533 17.6216L40.04 9.49992H42.2767L44.9533 17.6216L47.3917 9.49992H49.6467L46.0717 20.7932Z" fill="#157594"/>
</svg>
