<svg width="48" height="46" viewBox="0 0 48 46" fill="none" xmlns="http://www.w3.org/2000/svg">
<path d="M20.4631 26.3846L22.6219 25.1372L19.8223 22.7822L20.4631 26.3846Z" fill="#157594"/>
<path d="M47.1352 22.976C47.1352 22.445 46.8742 21.9782 46.477 21.6854L46.4854 21.671L40.891 18.4412L44.1112 12.8636L44.1004 12.857C44.2021 12.6272 44.2482 12.3766 44.235 12.1255C44.2218 11.8745 44.1495 11.6301 44.0242 11.4122C43.898 11.1945 43.7221 11.0097 43.511 10.8727C43.2999 10.7357 43.0595 10.6504 42.8092 10.6238V10.6082H36.3484V4.16604H36.3352C36.3083 3.9161 36.2229 3.67602 36.086 3.46524C35.949 3.25446 35.7643 3.07892 35.5468 2.95284C35.3286 2.82712 35.0837 2.7548 34.8322 2.74176C34.5807 2.72873 34.3297 2.77535 34.0996 2.87784L34.0918 2.86404L28.4032 6.14844L25.2532 0.692036L25.2418 0.698636C25.0935 0.495674 24.8995 0.330486 24.6755 0.216449C24.4515 0.102412 24.2038 0.0427303 23.9524 0.0422363C23.4214 0.0422363 22.954 0.303236 22.6618 0.700436L22.6474 0.692036L19.4452 6.23844L13.9312 3.05484L13.9246 3.06624C13.6947 2.96452 13.4441 2.91841 13.1931 2.93165C12.9421 2.94489 12.6977 3.0171 12.4798 3.14244C12.262 3.26859 12.077 3.44437 11.9399 3.6555C11.8028 3.86662 11.7174 4.10712 11.6908 4.35744H11.6746V10.7618H5.30741V10.7744C5.05748 10.8013 4.8174 10.8867 4.60662 11.0237C4.39584 11.1607 4.22029 11.3454 4.09421 11.5628C3.96883 11.7809 3.89664 12.0256 3.8835 12.2768C3.87037 12.528 3.91665 12.7788 4.01861 13.0088L4.00481 13.0172L7.15241 18.4694L1.51601 21.7238L1.52261 21.7352C1.31965 21.8835 1.15446 22.0775 1.04042 22.3015C0.926387 22.5256 0.866705 22.7733 0.866211 23.0246C0.866211 23.5556 1.12721 24.023 1.52441 24.3152L1.51601 24.3296L7.11041 27.5594L3.89021 33.137L3.90101 33.143C3.7993 33.3729 3.75319 33.6235 3.76643 33.8745C3.77967 34.1256 3.85188 34.3699 3.97721 34.5878C4.10347 34.8055 4.2793 34.9904 4.49041 35.1274C4.70152 35.2644 4.94196 35.3496 5.19221 35.3762V35.3924H11.6524V41.834H11.6656C11.7208 42.3236 11.995 42.782 12.454 43.0472C12.6723 43.1728 12.9171 43.2451 13.1686 43.2581C13.4201 43.2711 13.6711 43.2246 13.9012 43.1222L13.909 43.136L19.5976 39.8516L22.7476 45.308L22.759 45.3014C22.9073 45.5044 23.1013 45.6696 23.3253 45.7836C23.5493 45.8977 23.797 45.9573 24.0484 45.9578C24.5794 45.9578 25.0468 45.6968 25.339 45.3002L25.3528 45.308L28.555 39.7616L34.0696 42.9452L34.0762 42.9338C34.3061 43.0355 34.5567 43.0817 34.8077 43.0684C35.0587 43.0552 35.3031 42.983 35.521 42.8576C35.7389 42.7316 35.924 42.5558 36.0611 42.3447C36.1982 42.1335 36.2835 41.893 36.31 41.6426H36.3262V35.2388H42.694V35.2262C42.9439 35.1993 43.184 35.114 43.3948 34.977C43.6056 34.84 43.7811 34.6553 43.9072 34.4378C44.0326 34.2197 44.1048 33.9751 44.1179 33.7239C44.1311 33.4726 44.0848 33.2218 43.9828 32.9918L43.9966 32.984L40.849 27.5318L46.4854 24.2774L46.4788 24.266C46.6818 24.1176 46.847 23.9235 46.961 23.6994C47.075 23.4753 47.1347 23.2275 47.1352 22.976ZM16.5226 32.1182C15.1846 32.891 13.9714 32.9966 12.94 32.7194L13.0846 31.1012C13.8658 31.3274 14.8756 31.3262 15.8296 30.7748C16.6498 30.3014 16.8244 29.7158 16.591 29.312C15.8956 28.1084 12.3958 31.25 10.8916 28.6454C10.2268 27.4934 10.6714 25.9628 12.3016 25.022C13.4014 24.3866 14.5066 24.1922 15.5572 24.4292L15.3718 26.003C14.512 25.8086 13.627 26.0006 12.9214 26.4074C12.2986 26.7674 12.1012 27.2408 12.3412 27.6566C12.9706 28.7462 16.5202 25.715 18.0118 28.298C18.7432 29.5634 18.3814 31.046 16.5226 32.1182ZM24.8884 27.1226L23.776 26.2016L20.8078 27.9152L21.0484 29.3396L19.3774 30.3038L18.0484 21.842L19.8958 20.7758L26.5594 26.1584L24.8884 27.1226ZM27.1402 25.823L23.1436 18.9002L24.628 18.0428L27.8758 23.6678L30.8026 21.9782L31.552 23.276L27.1402 25.823ZM32.5474 22.7012L28.5508 15.779L33.4492 12.95L34.198 14.2472L30.7738 16.2248L31.6126 17.678L34.9642 15.7424L35.713 17.0396L32.3614 18.9746L33.2722 20.5526L36.697 18.575L37.4464 19.8722L32.5474 22.7012Z" fill="#157594"/>
</svg>
