<svg width="30" height="28" viewBox="0 0 30 28" fill="none" xmlns="http://www.w3.org/2000/svg">
<path d="M28.152 9.72409L19.7218 8.49889L15.9532 0.85885C15.8503 0.649671 15.6809 0.480335 15.4718 0.377405C14.9471 0.11842 14.3096 0.334241 14.0473 0.85885L10.2788 8.49889L1.8485 9.72409C1.61608 9.75729 1.40358 9.86686 1.24089 10.0329C1.0442 10.235 0.935811 10.507 0.939547 10.7891C0.943282 11.0711 1.05883 11.3401 1.26081 11.537L7.36023 17.4837L5.91921 25.8807C5.88542 26.0761 5.90703 26.277 5.98161 26.4606C6.05618 26.6443 6.18072 26.8034 6.34112 26.9199C6.50151 27.0364 6.69134 27.1056 6.88907 27.1197C7.08681 27.1338 7.28453 27.0922 7.45984 26.9997L15.0003 23.0352L22.5407 26.9997C22.7466 27.1093 22.9856 27.1458 23.2147 27.1059C23.7925 27.0063 24.1809 26.4585 24.0813 25.8807L22.6403 17.4837L28.7397 11.537C28.9058 11.3743 29.0153 11.1618 29.0485 10.9294C29.1382 10.3483 28.7331 9.81042 28.152 9.72409Z" fill="#E3E5E6"/>
</svg>
