<svg width="25" height="25" viewBox="0 0 25 25" fill="none" xmlns="http://www.w3.org/2000/svg">
<g clip-path="url(#clip0_239_3527)">
<path d="M12.9807 0.961548L15.6871 2.88035L18.9903 2.57182L20.3747 5.58675L23.3896 6.97116L23.0811 10.2744L24.9999 12.9808L23.0811 15.6872L23.3896 18.9904L20.3747 20.3748L18.9903 23.3897L15.6871 23.0812L12.9807 25L10.2743 23.0812L6.97104 23.3897L5.58663 20.3748L2.5717 18.9904L2.88023 15.6872L0.961426 12.9808L2.88023 10.2744L2.5717 6.97116L5.58663 5.58675L6.97104 2.57182L10.2743 2.88035L12.9807 0.961548Z" fill="#F29C1F"/>
<path d="M4.80762 11.6905V10.6494H9.59348V11.6905H7.87654V15.9531H6.52732V11.6905H4.80762Z" fill="white"/>
<path d="M15.3477 13.3013C15.3477 13.8848 15.2279 14.3794 14.9883 14.7852C14.7487 15.1909 14.4243 15.4991 14.0151 15.7097C13.6077 15.9203 13.1506 16.0256 12.6437 16.0256C12.135 16.0256 11.677 15.9194 11.2696 15.7071C10.8623 15.4947 10.5388 15.1866 10.2992 14.7826C10.0614 14.3768 9.94253 13.8831 9.94253 13.3013C9.94253 12.7177 10.0614 12.2231 10.2992 11.8174C10.5388 11.4116 10.8623 11.1035 11.2696 10.8928C11.677 10.6822 12.135 10.5769 12.6437 10.5769C13.1506 10.5769 13.6077 10.6822 14.0151 10.8928C14.4243 11.1035 14.7487 11.4116 14.9883 11.8174C15.2279 12.2231 15.3477 12.7177 15.3477 13.3013ZM13.9487 13.3013C13.9487 12.956 13.8962 12.6642 13.7911 12.4259C13.6879 12.1877 13.5386 12.0073 13.3432 11.8847C13.1497 11.7621 12.9165 11.7008 12.6437 11.7008C12.3728 11.7008 12.1396 11.7621 11.9442 11.8847C11.7489 12.0073 11.5986 12.1877 11.4936 12.4259C11.3904 12.6642 11.3388 12.956 11.3388 13.3013C11.3388 13.6466 11.3904 13.9383 11.4936 14.1766C11.5986 14.4148 11.7489 14.5952 11.9442 14.7178C12.1396 14.8404 12.3728 14.9017 12.6437 14.9017C12.9165 14.9017 13.1497 14.8404 13.3432 14.7178C13.5386 14.5952 13.6879 14.4148 13.7911 14.1766C13.8962 13.9383 13.9487 13.6466 13.9487 13.3013Z" fill="white"/>
<path d="M21.1538 10.6494V15.9531H19.8046V11.6749H17.7033V15.9531H16.3541V10.6494H21.1538Z" fill="white"/>
</g>
<defs>
<clipPath id="clip0_239_3527">
<rect width="25" height="25" fill="white"/>
</clipPath>
</defs>
</svg>
