<svg width="16" height="13" viewBox="0 0 16 13" fill="none" xmlns="http://www.w3.org/2000/svg">
<rect y="0.5" width="16" height="11" fill="#EEF3F8"/>
<rect y="0.5" width="9" height="7" fill="#41479B"/>
<rect x="9" y="0.5" width="7" height="1" fill="#DC251C"/>
<rect x="9" y="2.5" width="7" height="1" fill="#DC251C"/>
<rect x="9" y="4.5" width="7" height="1" fill="#DC251C"/>
<rect x="9" y="6.5" width="7" height="1" fill="#DC251C"/>
<rect y="8.5" width="16" height="1" fill="#DC251C"/>
<rect y="10.5" width="16" height="1" fill="#DC251C"/>
<rect x="1" y="1.5" width="1" height="1" fill="#C5D0EC"/>
<rect x="3" y="1.5" width="1" height="1" fill="#C5D0EC"/>
<rect x="5" y="1.5" width="1" height="1" fill="#C5D0EC"/>
<rect x="7" y="1.5" width="1" height="1" fill="#C5D0EC"/>
<rect x="1" y="3.5" width="1" height="1" fill="#C5D0EC"/>
<rect x="3" y="3.5" width="1" height="1" fill="#C5D0EC"/>
<rect x="5" y="3.5" width="1" height="1" fill="#C5D0EC"/>
<rect x="2" y="4.5" width="1" height="1" fill="#C5D0EC"/>
<rect x="4" y="4.5" width="1" height="1" fill="#C5D0EC"/>
<rect x="6" y="4.5" width="1" height="1" fill="#C5D0EC"/>
<rect x="2" y="2.5" width="1" height="1" fill="#C5D0EC"/>
<rect x="4" y="2.5" width="1" height="1" fill="#C5D0EC"/>
<rect x="6" y="2.5" width="1" height="1" fill="#C5D0EC"/>
<rect x="7" y="3.5" width="1" height="1" fill="#C5D0EC"/>
<rect x="1" y="5.5" width="1" height="1" fill="#C5D0EC"/>
<rect x="3" y="5.5" width="1" height="1" fill="#C5D0EC"/>
<rect x="5" y="5.5" width="1" height="1" fill="#C5D0EC"/>
<rect x="7" y="5.5" width="1" height="1" fill="#C5D0EC"/>
</svg>
