<svg width="25" height="25" viewBox="0 0 25 25" fill="none" xmlns="http://www.w3.org/2000/svg">
<path d="M24.9647 9.63208C24.8926 9.4104 24.7179 9.23711 24.4956 9.16709L17.404 6.93237L13.0872 0.878369C12.9518 0.688623 12.7331 0.575928 12.5 0.575928C12.2669 0.575928 12.0482 0.688623 11.9128 0.878369L7.59599 6.93237L0.504439 9.16714C0.282076 9.23721 0.107369 9.41045 0.0352985 9.63213C-0.0367229 9.85376 0.00282784 10.0966 0.1415 10.284L4.56518 16.2603L4.49912 23.6955C4.49707 23.9285 4.60776 24.1482 4.79638 24.2853C4.98501 24.4223 5.22822 24.4597 5.44921 24.3857L12.5 22.0252L19.5508 24.3856C19.6256 24.4107 19.7028 24.423 19.7797 24.423C19.9301 24.423 20.0789 24.3759 20.2037 24.2852C20.3922 24.1482 20.503 23.9285 20.5009 23.6954L20.4349 16.2603L24.8585 10.2839C24.9972 10.0966 25.0367 9.85376 24.9647 9.63208ZM10.7714 11.7911L9.3291 15.6373C9.22358 15.9187 8.95449 16.1052 8.65385 16.1052C8.35322 16.1052 8.08413 15.9187 7.97861 15.6373L6.53632 11.7911C6.39648 11.4182 6.5854 11.0025 6.95835 10.8626C7.33134 10.7229 7.74697 10.9117 7.88681 11.2847L8.6539 13.3302L9.42099 11.2847C9.56084 10.9117 9.97646 10.7229 10.3495 10.8626C10.7223 11.0025 10.9113 11.4182 10.7714 11.7911ZM13.2211 15.384C13.2211 15.7823 12.8982 16.1052 12.5 16.1052C12.1017 16.1052 11.7789 15.7823 11.7789 15.384V11.5379C11.7789 11.1396 12.1018 10.8167 12.5 10.8167C12.8983 10.8167 13.2211 11.1396 13.2211 11.5379V15.384ZM16.8269 14.1821H15.625V15.384C15.625 15.7823 15.3021 16.1052 14.9039 16.1052C14.5056 16.1052 14.1827 15.7823 14.1827 15.384V11.5379C14.1827 11.1396 14.5056 10.8167 14.9039 10.8167H16.8269C17.7548 10.8167 18.5097 11.5716 18.5097 12.4995C18.5097 13.4273 17.7548 14.1821 16.8269 14.1821Z" fill="#C03A2B"/>
</svg>
