<svg width="22" height="22" viewBox="0 0 22 22" fill="none" xmlns="http://www.w3.org/2000/svg">
<path d="M1.375 11C1.375 5.68426 5.68426 1.375 11 1.375C16.3157 1.375 20.625 5.68426 20.625 11C20.625 16.3157 16.3157 20.625 11 20.625C5.68426 20.625 1.375 16.3157 1.375 11Z" fill="#2AC1CE"/>
<path d="M3.83203 6.69946V7.10904L5.32936 7.34478C6.39032 7.51182 7.2454 8.30928 7.4926 9.36224L9.2454 16.8283C9.28878 17.0131 9.45252 17.1436 9.64096 17.1436H12.1006C12.2629 17.1436 12.4096 17.0464 12.4739 16.8963L16.7168 6.98536C16.7747 6.85018 16.6763 6.69946 16.5302 6.69946H14.2639C14.1003 6.69946 13.9526 6.79834 13.8892 6.95034L11.0469 13.7646L9.9131 7.70069C9.80453 7.12003 9.30117 6.69946 8.71477 6.69946H3.83203Z" fill="white"/>
</svg>
