<svg width="26" height="26" viewBox="0 0 26 26" fill="none" xmlns="http://www.w3.org/2000/svg">
<path d="M3.4 4.99999V3.99999C2.92332 3.99999 2.5129 4.33645 2.41942 4.80387L3.4 4.99999ZM22.6 4.99999L23.5806 4.80387C23.4871 4.33645 23.0767 3.99999 22.6 3.99999V4.99999ZM24.2 13V14C24.4996 14 24.7834 13.8657 24.9733 13.634C25.1633 13.4023 25.2393 13.0976 25.1806 12.8039L24.2 13ZM1.8 13L0.819419 12.8039C0.760664 13.0976 0.836719 13.4023 1.02666 13.634C1.2166 13.8657 1.50041 14 1.8 14V13ZM6.6 17.8H5.6V18.8H6.6V17.8ZM19.4 17.8V18.8H20.4V17.8H19.4ZM1 25.2H25V23.2H1V25.2ZM2.4 13V24.2H4.4V13H2.4ZM21.6 13V24.2H23.6V13H21.6ZM3.4 5.99999H22.6V3.99999H3.4V5.99999ZM21.6194 5.1961L23.2194 13.1961L25.1806 12.8039L23.5806 4.80387L21.6194 5.1961ZM24.2 12H1.8V14H24.2V12ZM2.78058 13.1961L4.38058 5.1961L2.41942 4.80387L0.819419 12.8039L2.78058 13.1961ZM2.6 2.79999H23.4V0.799988H2.6V2.79999ZM5.6 13V17.8H7.6V13H5.6ZM6.6 18.8H19.4V16.8H6.6V18.8ZM20.4 17.8V13H18.4V17.8H20.4Z" fill="#A9A9A9"/>
</svg>
