<svg width="26" height="24" viewBox="0 0 26 24" fill="none" xmlns="http://www.w3.org/2000/svg">
    <path d="M13 21.6L12.2929 22.3071C12.6834 22.6977 13.3166 22.6977 13.7071 22.3071L13 21.6ZM3.45686 12.0569L2.74975 12.764L2.74975 12.764L3.45686 12.0569ZM11.4569 4.05688L10.7498 4.76399V4.76399L11.4569 4.05688ZM13 5.60002L12.2929 6.30713C12.6834 6.69766 13.3166 6.69766 13.7071 6.30713L13 5.60002ZM14.5431 4.05688L13.836 3.34977V3.34977L14.5431 4.05688ZM13.7071 20.8929L4.16396 11.3498L2.74975 12.764L12.2929 22.3071L13.7071 20.8929ZM21.836 11.3498L12.2929 20.8929L13.7071 22.3071L23.2503 12.764L21.836 11.3498ZM10.7498 4.76399L12.2929 6.30713L13.7071 4.89292L12.164 3.34977L10.7498 4.76399ZM13.7071 6.30713L15.2503 4.76398L13.836 3.34977L12.2929 4.89292L13.7071 6.30713ZM18.5431 1.40002C16.7776 1.40002 15.0844 2.10137 13.836 3.34977L15.2503 4.76398C16.1236 3.89066 17.3081 3.40002 18.5431 3.40002V1.40002ZM23.2 8.05688C23.2 9.29195 22.7094 10.4764 21.836 11.3498L23.2503 12.764C24.4987 11.5156 25.2 9.82239 25.2 8.05688H23.2ZM25.2 8.05688C25.2 4.3804 22.2196 1.40002 18.5431 1.40002V3.40002C21.1151 3.40002 23.2 5.48497 23.2 8.05688H25.2ZM7.45686 3.40002C8.69193 3.40002 9.87642 3.89066 10.7498 4.76399L12.164 3.34977C10.9156 2.10137 9.22236 1.40002 7.45686 1.40002V3.40002ZM2.8 8.05688C2.8 5.48497 4.88495 3.40002 7.45686 3.40002V1.40002C3.78038 1.40002 0.800003 4.3804 0.800003 8.05688H2.8ZM4.16396 11.3498C3.29063 10.4764 2.8 9.29195 2.8 8.05688H0.800003C0.800003 9.82239 1.50135 11.5156 2.74975 12.764L4.16396 11.3498Z" fill="#A9A9A9"/>
</svg>
