<svg width="26" height="26" viewBox="0 0 26 26" fill="none" xmlns="http://www.w3.org/2000/svg">
    <path d="M13 1.80005L13.6508 1.04079C13.2763 0.719801 12.7237 0.719801 12.3492 1.04079L13 1.80005ZM1.79999 11.4L1.1492 10.6408L0.799988 10.9401V11.4H1.79999ZM9.79999 24.2V25.2C10.3523 25.2 10.8 24.7523 10.8 24.2H9.79999ZM16.2 24.2H15.2C15.2 24.7523 15.6477 25.2 16.2 25.2V24.2ZM24.2 11.4H25.2V10.9401L24.8508 10.6408L24.2 11.4ZM3.39999 25.2H9.79999V23.2H3.39999V25.2ZM24.8508 10.6408L13.6508 1.04079L12.3492 2.55931L23.5492 12.1593L24.8508 10.6408ZM12.3492 1.04079L1.1492 10.6408L2.45078 12.1593L13.6508 2.55931L12.3492 1.04079ZM10.8 24.2V19.4H8.79999V24.2H10.8ZM15.2 19.4V24.2H17.2V19.4H15.2ZM16.2 25.2H22.6V23.2H16.2V25.2ZM25.2 22.6V11.4H23.2V22.6H25.2ZM0.799988 11.4V22.6H2.79999V11.4H0.799988ZM13 17.2C14.215 17.2 15.2 18.185 15.2 19.4H17.2C17.2 17.0805 15.3196 15.2 13 15.2V17.2ZM13 15.2C10.6804 15.2 8.79999 17.0805 8.79999 19.4H10.8C10.8 18.185 11.785 17.2 13 17.2V15.2ZM22.6 25.2C24.0359 25.2 25.2 24.036 25.2 22.6H23.2C23.2 22.9314 22.9314 23.2 22.6 23.2V25.2ZM3.39999 23.2C3.06862 23.2 2.79999 22.9314 2.79999 22.6H0.799988C0.799988 24.036 1.96405 25.2 3.39999 25.2V23.2Z" fill="#2AC1CE"/>
</svg>
